<svg width="162" height="42" viewBox="0 0 162 42" fill="none" xmlns="http://www.w3.org/2000/svg">
<path d="M73.7039 22.2419C73.7409 22.2004 73.7748 22.1572 73.807 22.1125C73.8102 22.1077 73.8134 22.1013 73.8183 22.0965C73.8472 22.0535 73.8762 22.0104 73.9003 21.9673C73.9051 21.9577 73.91 21.9481 73.9164 21.9385C73.939 21.8987 73.9599 21.8572 73.9776 21.8172C73.9841 21.8029 73.9905 21.7869 73.997 21.7725C74.013 21.7359 74.0275 21.6992 74.0404 21.6608C74.0469 21.6417 74.0534 21.6225 74.0582 21.6017C74.0677 21.5683 74.0774 21.5331 74.0871 21.4996C74.0919 21.4772 74.0968 21.4549 74.1016 21.4309C74.1081 21.3991 74.1145 21.3671 74.1178 21.3336C74.121 21.3096 74.1225 21.2841 74.1257 21.2601C74.1289 21.2283 74.1322 21.1979 74.1322 21.166C74.1322 21.1405 74.1322 21.1149 74.1322 21.0893C74.1322 21.0591 74.1322 21.0288 74.1305 20.9968C74.1305 20.9713 74.1257 20.9441 74.1241 20.9185C74.121 20.8899 74.1178 20.8596 74.1129 20.8308C74.1081 20.8037 74.1032 20.7765 74.0984 20.7479C74.0936 20.7207 74.0871 20.6936 74.0807 20.6664C74.0726 20.6361 74.0646 20.6073 74.055 20.5787C74.0469 20.5547 74.0404 20.5307 74.0324 20.5068C74.0211 20.4732 74.0067 20.4413 73.9938 20.4095C73.9857 20.3903 73.9776 20.3711 73.9679 20.352C73.9503 20.3152 73.931 20.2801 73.9116 20.2435C73.9035 20.2291 73.8972 20.2163 73.8891 20.2019C73.8649 20.162 73.8392 20.1237 73.8118 20.0853C73.8053 20.0759 73.7989 20.0679 73.7924 20.0583C73.7619 20.0168 73.7296 19.9784 73.6959 19.9401C73.691 19.9353 73.6878 19.9305 73.6846 19.9257L73.6702 19.9099C73.6702 19.9099 73.6557 19.8939 73.6492 19.8859L61.2371 5.8969C60.5851 5.17065 59.4613 5.1068 58.7287 5.75325C57.9961 6.3997 57.9317 7.51385 58.5839 8.2401L61.5366 11.7006L69.9863 21.1069C69.9863 21.1069 69.9895 21.1149 69.9863 21.1181L58.5146 33.5396C57.8737 34.2707 57.8802 35.4008 58.6015 36.0552C59.3421 36.7272 60.4885 36.6585 61.1422 35.9116L73.6621 22.2945C73.6718 22.2833 73.6813 22.2721 73.691 22.2609L73.6991 22.2531C73.6991 22.2531 73.7039 22.2483 73.7056 22.2451L73.7039 22.2419Z" fill="#F18D13"/>
<path d="M86.3044 9.72133C85.5847 9.06051 84.4608 9.10201 83.7942 9.81551L78.8691 15.0813L66.2993 1.09076C65.6473 0.364492 64.5234 0.300645 63.7909 0.9471C63.0583 1.59356 62.9938 2.70769 63.6459 3.43396L77.5183 18.8754C78.1703 19.6017 79.2941 19.6656 80.0267 19.0192C80.0798 18.9712 80.1297 18.9217 80.1749 18.869L86.401 12.2114C87.0675 11.4979 87.0257 10.3837 86.306 9.72293L86.3044 9.72133Z" fill="#023A90"/>
<path d="M79.08 8.26081C80.476 8.26081 81.6078 7.13882 81.6078 5.75479C81.6078 4.37075 80.476 3.24878 79.08 3.24878C77.684 3.24878 76.5522 4.37075 76.5522 5.75479C76.5522 7.13882 77.684 8.26081 79.08 8.26081Z" fill="#023A90"/>
<path d="M0.644043 28.079V13.675H4.54362V28.079H0.644043Z" fill="#023A90"/>
<path d="M8.16618 13.675H11.9015L12.011 17.7054L10.8292 17.8954C11.1593 17.1515 11.6536 16.4349 12.3121 15.7437C12.9706 15.0542 13.7773 14.4875 14.7288 14.0422C15.6804 13.5985 16.7704 13.375 17.9973 13.375C19.48 13.375 20.7246 13.6527 21.7325 14.205C22.7389 14.7589 23.5037 15.5074 24.0254 16.4509C24.5469 17.3942 24.8078 18.4381 24.8078 19.5825V28.0774H20.9082V20.3982C20.9082 19.6719 20.7246 19.0318 20.3592 18.4779C19.9921 17.9241 19.4978 17.4931 18.8763 17.185C18.2532 16.877 17.5481 16.7222 16.7607 16.7222C16.0282 16.7222 15.3728 16.845 14.7965 17.0893C14.22 17.3351 13.729 17.6575 13.3264 18.0566C12.9239 18.4557 12.6132 18.8834 12.3926 19.3367C12.172 19.7901 12.0625 20.2258 12.0625 20.6439V28.0774H8.16296V13.6734L8.16618 13.675Z" fill="#023A90"/>
<path d="M36.2941 28.3503C34.5906 28.3503 33.1173 28.0327 31.8727 27.3973C30.6267 26.7621 29.6655 25.8825 28.9892 24.7557C28.3114 23.6304 27.9733 22.3327 27.9733 20.8625C27.9733 19.3925 28.3338 18.122 29.0584 16.9967C29.7814 15.8713 30.7893 14.9871 32.0789 14.3421C33.3702 13.6989 34.8578 13.3749 36.5419 13.3749C37.5676 13.3749 38.5191 13.4883 39.3983 13.7149C40.2773 13.9416 41.0421 14.2416 41.691 14.6135C42.3398 14.9855 42.8582 15.3893 43.243 15.8251C43.628 16.2608 43.8372 16.6965 43.8742 17.1323L42.8857 17.3223V7.92871H46.8126V28.0789H43.1046L42.9404 24.2129L43.71 24.5131C43.673 24.9488 43.4541 25.3941 43.0515 25.8475C42.649 26.3008 42.1032 26.7189 41.4173 27.1005C40.7314 27.482 39.9521 27.7868 39.0826 28.0135C38.2133 28.2401 37.2842 28.3535 36.2941 28.3535V28.3503ZM37.4195 24.9744C38.5546 24.9744 39.5383 24.7972 40.3723 24.4428C41.2048 24.0885 41.8552 23.6032 42.3222 22.9855C42.789 22.3677 43.0225 21.6607 43.0225 20.8609C43.0225 20.0613 42.789 19.3861 42.3222 18.778C41.8552 18.1699 41.2048 17.6893 40.3723 17.3351C39.5383 16.9807 38.5546 16.8035 37.4195 16.8035C36.2844 16.8035 35.3554 16.9807 34.5213 17.3351C33.6873 17.6893 33.0385 18.1699 32.5716 18.778C32.1046 19.3861 31.8711 20.0804 31.8711 20.8609C31.8711 21.6415 32.1046 22.3677 32.5716 22.9855C33.0385 23.6032 33.6873 24.0885 34.5213 24.4428C35.3538 24.7972 36.3198 24.9744 37.4195 24.9744Z" fill="#023A90"/>
<path d="M52.5525 10.6997C51.8023 10.6997 51.2162 10.5145 50.7944 10.141C50.3725 9.76912 50.1633 9.24717 50.1633 8.57517C50.1633 7.95905 50.379 7.45465 50.8088 7.06358C51.2388 6.67412 51.8201 6.47778 52.5525 6.47778C53.2851 6.47778 53.889 6.66454 54.3108 7.03645C54.731 7.40836 54.9419 7.92074 54.9419 8.57517C54.9419 9.1929 54.7262 9.70049 54.2964 10.0995C53.8664 10.4986 53.2836 10.6981 52.5525 10.6981V10.6997ZM50.6302 28.3168V13.9128H54.5297V28.3168H50.6302Z" fill="#023A90"/>
<path d="M90.8866 34.0138V13.5922H94.6493L94.7588 16.8595L94.0456 16.6154C94.192 16.0886 94.5994 15.581 95.2676 15.091C95.9357 14.601 96.7826 14.1891 97.8083 13.8523C98.8338 13.5171 99.9513 13.3479 101.159 13.3479C102.862 13.3479 104.35 13.6655 105.622 14.3008C106.894 14.9362 107.882 15.8124 108.588 16.9282C109.293 18.0439 109.645 19.3384 109.645 20.8084C109.645 22.2786 109.288 23.5491 108.575 24.6744C107.86 25.7998 106.866 26.6808 105.594 27.3162C104.321 27.9514 102.843 28.2691 101.159 28.2691C99.8772 28.2691 98.718 28.0919 97.6843 27.7391C96.6489 27.3848 95.8037 26.9411 95.1436 26.4047C94.4851 25.87 94.0729 25.348 93.907 24.8388L94.8135 24.4574V34.0154H90.8866V34.0138ZM100.28 24.9458C101.395 24.9458 102.371 24.7686 103.205 24.4143C104.038 24.0599 104.688 23.5699 105.155 22.9442C105.622 22.3184 105.855 21.605 105.855 20.8068C105.855 20.0088 105.617 19.2954 105.142 18.6696C104.666 18.0439 104.017 17.5571 103.192 17.2123C102.368 16.8675 101.397 16.6951 100.281 16.6951C99.1656 16.6951 98.2076 16.8723 97.3558 17.2267C96.5041 17.581 95.8456 18.0663 95.3787 18.684C94.9117 19.3016 94.6782 20.0088 94.6782 20.8084C94.6782 21.6082 94.9117 22.32 95.3787 22.9458C95.8456 23.5715 96.5041 24.0615 97.3558 24.4159C98.2076 24.7702 99.1816 24.9474 100.281 24.9474L100.28 24.9458Z" fill="#023A90"/>
<path d="M122.384 28.2961C120.388 28.2961 118.63 27.9785 117.111 27.3432C115.591 26.708 114.414 25.8316 113.582 24.7159C112.748 23.6001 112.333 22.3328 112.333 20.9169C112.333 19.7183 112.584 18.6536 113.088 17.7183C113.592 16.7829 114.292 15.9896 115.189 15.3352C116.086 14.6823 117.111 14.1779 118.266 13.8236C119.42 13.4692 120.637 13.292 121.919 13.292C123.201 13.292 124.363 13.4692 125.463 13.8236C126.561 14.1779 127.524 14.6727 128.346 15.308C129.171 15.9433 129.811 16.7015 130.269 17.5809C130.726 18.4621 130.937 19.4277 130.9 20.4812L130.872 21.8699H115.355L114.724 19.3096H127.661L127.221 19.7997V19.2011C127.147 18.6744 126.859 18.2115 126.356 17.8124C125.852 17.4133 125.216 17.0957 124.447 16.8595C123.677 16.6232 122.854 16.5052 121.975 16.5052C120.895 16.5052 119.902 16.6408 118.995 16.9137C118.089 17.1851 117.366 17.6209 116.825 18.2211C116.284 18.8196 116.015 19.6193 116.015 20.6169C116.015 21.4709 116.308 22.2243 116.894 22.8771C117.48 23.53 118.304 24.0487 119.365 24.4287C120.426 24.8101 121.663 25 123.073 25C124.484 25 125.637 24.8372 126.533 24.51C127.43 24.1828 128.118 23.8939 128.593 23.6385L130.269 26.1972C129.628 26.5963 128.886 26.9601 128.044 27.2857C127.202 27.6129 126.3 27.862 125.339 28.0344C124.378 28.2068 123.392 28.2929 122.386 28.2929L122.384 28.2961Z" fill="#023A90"/>
<path d="M134.286 28.0231V13.6191H138.049L138.186 18.9552L136.977 18.928C137.269 17.8938 137.764 16.9504 138.459 16.0964C139.154 15.244 139.969 14.5672 140.903 14.0676C141.837 13.568 142.808 13.3191 143.814 13.3191C144.492 13.3191 145.158 13.3766 145.806 13.5362C146.398 13.683 146.328 13.691 146.328 13.8634L146.34 18.221C145.956 17.9671 145.439 17.7628 144.788 17.608C144.137 17.4532 143.52 17.3766 142.935 17.3766C142.166 17.3766 141.488 17.4947 140.903 17.731C140.318 17.9671 139.823 18.28 139.421 18.6695C139.018 19.0606 138.714 19.4915 138.514 19.9624C138.312 20.4348 138.211 20.9058 138.211 21.3782V28.0215H134.284L134.286 28.0231Z" fill="#023A90"/>
<path d="M149.619 17.0765V13.6192H161.391V17.0765H149.619ZM152.863 28.0232V9.15308H156.762V28.0232H152.863Z" fill="#023A90"/>
<path d="M86.3044 32.277C85.5847 32.9378 84.4608 32.8963 83.7942 32.1828L78.8691 26.917L66.2993 40.9091C65.6473 41.6354 64.5234 41.6992 63.7909 41.0528C63.0583 40.4063 62.9938 39.2922 63.6459 38.5659L77.5183 23.1244C78.1703 22.3982 79.2941 22.3343 80.0267 22.9808C80.0798 23.0287 80.1297 23.0782 80.1749 23.1308L86.401 29.7884C87.0675 30.502 87.0257 31.6162 86.306 32.277H86.3044Z" fill="#023A90"/>
<path d="M86.3044 32.277C85.5847 32.9378 84.4608 32.8963 83.7942 32.1828L78.8691 26.917L66.2993 40.9091C65.6473 41.6354 64.5234 41.6992 63.7909 41.0528C63.0583 40.4063 62.9938 39.2922 63.6459 38.5659L77.5183 23.1244C78.1703 22.3982 79.2941 22.3343 80.0267 22.9808C80.0798 23.0287 80.1297 23.0782 80.1749 23.1308L86.401 29.7884C87.0675 30.502 87.0257 31.6162 86.306 32.277H86.3044Z" fill="#023A90"/>
<path d="M79.08 38.7513C80.476 38.7513 81.6078 37.6293 81.6078 36.2453C81.6078 34.8613 80.476 33.7393 79.08 33.7393C77.684 33.7393 76.5522 34.8613 76.5522 36.2453C76.5522 37.6293 77.684 38.7513 79.08 38.7513Z" fill="#023A90"/>
<path d="M2.5278 10.8003C3.92387 10.8003 5.05561 9.67837 5.05561 8.29434C5.05561 6.9103 3.92387 5.78833 2.5278 5.78833C1.13174 5.78833 0 6.9103 0 8.29434C0 9.67837 1.13174 10.8003 2.5278 10.8003Z" fill="#F18D13"/>
</svg>
