<svg width="35" height="34" viewBox="0 0 35 34" fill="none" xmlns="http://www.w3.org/2000/svg">
<mask id="path-1-inside-1_2303_1406" fill="white">
<path d="M20.3153 16.6106C20.1477 16.6106 19.9921 16.5645 19.8538 16.4904V16.4923C19.8538 16.756 19.7513 17.0037 19.5654 17.1891C19.3794 17.3751 19.1319 17.4776 18.8685 17.4776C18.6985 17.4776 18.5409 17.4304 18.4012 17.3543C18.387 17.5955 18.2906 17.821 18.1186 17.9932C17.9326 18.1792 17.6852 18.2817 17.4216 18.2817C16.898 18.2817 16.4727 17.8701 16.4421 17.3541C16.2801 17.4417 16.0969 17.4876 15.9079 17.4755C15.3928 17.4417 14.9894 16.9966 14.9894 16.462V12.0304L14.4848 12.9046C14.2926 13.239 13.9328 13.4466 13.5454 13.4466C13.3567 13.4466 13.1702 13.3971 13.0051 13.3024C12.7994 13.1832 12.6523 12.9918 12.5912 12.7629C12.5297 12.5338 12.5615 12.2942 12.6804 12.0889C12.6805 12.0889 14.3315 9.22996 14.4322 9.05435C14.4441 9.02795 14.4783 8.95137 14.5073 8.8861C14.535 8.82378 14.5588 8.75982 14.5816 8.69554C15.0794 7.28998 16.3122 6.41687 17.7989 6.41687C19.7296 6.41687 21.3003 8.12009 21.3003 10.2136L21.3005 15.6251C21.3005 15.8885 21.1982 16.136 21.0124 16.3221C20.8264 16.5081 20.5789 16.6106 20.3153 16.6106L20.3153 16.6106ZM17.799 6.94042C16.5214 6.94042 15.5032 7.66201 15.075 8.87063C15.0477 8.94737 15.0191 9.02412 14.9858 9.0989C14.8892 9.31554 14.8892 9.31554 14.862 9.34669L14.8584 9.34358C14.7236 9.59793 14.3231 10.2915 13.1337 12.3509C13.0848 12.4353 13.0719 12.5334 13.0968 12.6272C13.1221 12.721 13.1826 12.8001 13.2664 12.8484C13.5265 12.9978 13.8827 12.9014 14.0309 12.6431L15.0245 10.9228C15.0839 10.8203 15.2039 10.77 15.3191 10.8011C15.4335 10.8318 15.5131 10.9356 15.5131 11.054V16.4621C15.5131 16.7173 15.7056 16.9375 15.9423 16.9531C16.0787 16.9603 16.206 16.9146 16.3016 16.8191C16.3885 16.7322 16.4364 16.6164 16.4364 16.4926V12.9556C16.4364 12.811 16.5536 12.6937 16.6983 12.6937C16.8429 12.6937 16.9602 12.8108 16.9602 12.9556L16.96 17.2966C16.96 17.5511 17.1671 17.7582 17.4216 17.7582C17.5453 17.7582 17.6614 17.7103 17.7485 17.6234C17.8354 17.5363 17.8833 17.4202 17.8833 17.2966V12.9556C17.8833 12.811 18.0004 12.6937 18.1452 12.6937C18.2898 12.6937 18.4071 12.8108 18.4071 12.9556L18.4069 16.4519V16.4926C18.4069 16.747 18.614 16.9541 18.8687 16.9541C18.9922 16.9541 19.108 16.906 19.1955 16.8188C19.2825 16.732 19.3303 16.6163 19.3303 16.4924V12.9555C19.3303 12.8108 19.4474 12.6936 19.5922 12.6936C19.7369 12.6936 19.8541 12.8107 19.8541 12.9555L19.8538 15.6253C19.8538 15.8799 20.0609 16.0871 20.3153 16.0871C20.4391 16.0871 20.5549 16.039 20.6418 15.9523C20.729 15.865 20.7767 15.7489 20.7767 15.6253L20.7769 10.2138C20.7769 8.40905 19.441 6.94047 17.7989 6.94047L17.799 6.94042Z"/>
</mask>
<path d="M20.3153 16.6106C20.1477 16.6106 19.9921 16.5645 19.8538 16.4904V16.4923C19.8538 16.756 19.7513 17.0037 19.5654 17.1891C19.3794 17.3751 19.1319 17.4776 18.8685 17.4776C18.6985 17.4776 18.5409 17.4304 18.4012 17.3543C18.387 17.5955 18.2906 17.821 18.1186 17.9932C17.9326 18.1792 17.6852 18.2817 17.4216 18.2817C16.898 18.2817 16.4727 17.8701 16.4421 17.3541C16.2801 17.4417 16.0969 17.4876 15.9079 17.4755C15.3928 17.4417 14.9894 16.9966 14.9894 16.462V12.0304L14.4848 12.9046C14.2926 13.239 13.9328 13.4466 13.5454 13.4466C13.3567 13.4466 13.1702 13.3971 13.0051 13.3024C12.7994 13.1832 12.6523 12.9918 12.5912 12.7629C12.5297 12.5338 12.5615 12.2942 12.6804 12.0889C12.6805 12.0889 14.3315 9.22996 14.4322 9.05435C14.4441 9.02795 14.4783 8.95137 14.5073 8.8861C14.535 8.82378 14.5588 8.75982 14.5816 8.69554C15.0794 7.28998 16.3122 6.41687 17.7989 6.41687C19.7296 6.41687 21.3003 8.12009 21.3003 10.2136L21.3005 15.6251C21.3005 15.8885 21.1982 16.136 21.0124 16.3221C20.8264 16.5081 20.5789 16.6106 20.3153 16.6106L20.3153 16.6106ZM17.799 6.94042C16.5214 6.94042 15.5032 7.66201 15.075 8.87063C15.0477 8.94737 15.0191 9.02412 14.9858 9.0989C14.8892 9.31554 14.8892 9.31554 14.862 9.34669L14.8584 9.34358C14.7236 9.59793 14.3231 10.2915 13.1337 12.3509C13.0848 12.4353 13.0719 12.5334 13.0968 12.6272C13.1221 12.721 13.1826 12.8001 13.2664 12.8484C13.5265 12.9978 13.8827 12.9014 14.0309 12.6431L15.0245 10.9228C15.0839 10.8203 15.2039 10.77 15.3191 10.8011C15.4335 10.8318 15.5131 10.9356 15.5131 11.054V16.4621C15.5131 16.7173 15.7056 16.9375 15.9423 16.9531C16.0787 16.9603 16.206 16.9146 16.3016 16.8191C16.3885 16.7322 16.4364 16.6164 16.4364 16.4926V12.9556C16.4364 12.811 16.5536 12.6937 16.6983 12.6937C16.8429 12.6937 16.9602 12.8108 16.9602 12.9556L16.96 17.2966C16.96 17.5511 17.1671 17.7582 17.4216 17.7582C17.5453 17.7582 17.6614 17.7103 17.7485 17.6234C17.8354 17.5363 17.8833 17.4202 17.8833 17.2966V12.9556C17.8833 12.811 18.0004 12.6937 18.1452 12.6937C18.2898 12.6937 18.4071 12.8108 18.4071 12.9556L18.4069 16.4519V16.4926C18.4069 16.747 18.614 16.9541 18.8687 16.9541C18.9922 16.9541 19.108 16.906 19.1955 16.8188C19.2825 16.732 19.3303 16.6163 19.3303 16.4924V12.9555C19.3303 12.8108 19.4474 12.6936 19.5922 12.6936C19.7369 12.6936 19.8541 12.8107 19.8541 12.9555L19.8538 15.6253C19.8538 15.8799 20.0609 16.0871 20.3153 16.0871C20.4391 16.0871 20.5549 16.039 20.6418 15.9523C20.729 15.865 20.7767 15.7489 20.7767 15.6253L20.7769 10.2138C20.7769 8.40905 19.441 6.94047 17.7989 6.94047L17.799 6.94042Z" fill="#4CAF4F"/>
<path d="M20.3153 16.6106V15.6825H23.5943L20.8017 17.401L20.3153 16.6106ZM19.8538 16.4904H18.9257V14.9396L20.2924 15.6724L19.8538 16.4904ZM19.5654 17.1891L18.9091 16.5329L18.91 16.532L19.5654 17.1891ZM18.4012 17.3543L17.4746 17.3001L17.56 15.8395L18.845 16.5392L18.4012 17.3543ZM18.1186 17.9932L18.7752 18.6491L18.7749 18.6495L18.1186 17.9932ZM16.4421 17.3541L16.0008 16.5377L17.2822 15.8451L17.3685 17.2991L16.4421 17.3541ZM15.9079 17.4755L15.8484 18.4017L15.8472 18.4016L15.9079 17.4755ZM14.9894 12.0304L14.1856 11.5664L15.9175 8.56598V12.0304H14.9894ZM14.4848 12.9046L13.6801 12.4421L13.681 12.4406L14.4848 12.9046ZM13.0051 13.3024L12.5437 14.1077L12.5396 14.1054L13.0051 13.3024ZM12.5912 12.7629L13.4875 12.5223L13.4878 12.5233L12.5912 12.7629ZM12.6804 12.0889L11.8772 11.6238L12.1453 11.1608H12.6804V12.0889ZM14.4322 9.05435L15.2774 9.43761L15.2592 9.4778L15.2373 9.51608L14.4322 9.05435ZM14.5073 8.8861L13.6593 8.50897L13.6593 8.50896L14.5073 8.8861ZM14.5816 8.69554L15.4564 9.00541L15.4563 9.00566L14.5816 8.69554ZM21.3003 10.2136L20.3722 10.2137V10.2136H21.3003ZM21.3005 15.6251L22.2286 15.6251V15.6251H21.3005ZM21.0124 16.3221L21.6692 16.9778L21.6686 16.9784L21.0124 16.3221ZM20.3153 16.6106V17.5387H17.0363L19.8288 15.8202L20.3153 16.6106ZM17.799 6.94042V6.01232H19.0294L18.6913 7.19538L17.799 6.94042ZM15.075 8.87063L15.9499 9.18055L15.9491 9.18254L15.075 8.87063ZM14.9858 9.0989L15.8337 9.47636L15.8335 9.47685L14.9858 9.0989ZM14.862 9.34669L15.5609 9.95735L14.9538 10.6522L14.2554 10.0491L14.862 9.34669ZM14.8584 9.34358L14.0384 8.90898L14.5837 7.88002L15.465 8.64118L14.8584 9.34358ZM13.1337 12.3509L13.9374 12.8151L13.937 12.8157L13.1337 12.3509ZM13.0968 12.6272L12.2006 12.8685L12.1998 12.8656L13.0968 12.6272ZM13.2664 12.8484L12.8041 13.6532L12.8024 13.6522L13.2664 12.8484ZM14.0309 12.6431L13.226 12.1811L13.2272 12.1789L14.0309 12.6431ZM15.0245 10.9228L14.2209 10.4586L14.2214 10.4576L15.0245 10.9228ZM15.3191 10.8011L15.0789 11.6976L15.0766 11.697L15.3191 10.8011ZM15.9423 16.9531L15.8932 17.88L15.8813 17.8792L15.9423 16.9531ZM16.3016 16.8191L16.9578 17.4754L16.9572 17.476L16.3016 16.8191ZM16.9602 12.9556H17.8882V12.9557L16.9602 12.9556ZM16.96 17.2966H16.0319V17.2966L16.96 17.2966ZM17.7485 17.6234L18.4053 18.2791L18.4041 18.2803L17.7485 17.6234ZM18.4071 12.9556H19.3352V12.9557L18.4071 12.9556ZM18.4069 16.4519H17.4788V16.4519L18.4069 16.4519ZM19.1955 16.8188L19.8512 17.4757L19.8506 17.4763L19.1955 16.8188ZM19.8541 12.9555H20.7822V12.9556L19.8541 12.9555ZM19.8538 15.6253H18.9257V15.6251L19.8538 15.6253ZM20.6418 15.9523L21.298 16.6085L21.2974 16.6091L20.6418 15.9523ZM20.7767 15.6253H19.8486V15.6252L20.7767 15.6253ZM20.7769 10.2138H21.705V10.2138L20.7769 10.2138ZM17.7989 6.94047V7.86856H16.5685L16.9066 6.6855L17.7989 6.94047ZM20.3153 17.5387C19.9735 17.5387 19.6684 17.4441 19.4152 17.3083L20.2924 15.6724C20.3044 15.6789 20.312 15.6813 20.315 15.6821C20.3176 15.6828 20.3173 15.6825 20.3153 15.6825V17.5387ZM20.7819 16.4904V16.4923H18.9257V16.4904H20.7819ZM20.7819 16.4923C20.7819 17.0014 20.5821 17.4858 20.2207 17.8463L18.91 16.532C18.9166 16.5254 18.9199 16.5197 18.9218 16.5151C18.9237 16.5105 18.9257 16.5033 18.9257 16.4923H20.7819ZM20.2216 17.8454C19.8614 18.2056 19.3779 18.4057 18.8685 18.4057V16.5495C18.8792 16.5495 18.8862 16.5476 18.8909 16.5456C18.8957 16.5436 18.9018 16.5401 18.9091 16.5329L20.2216 17.8454ZM18.8685 18.4057C18.5223 18.4057 18.2134 18.3088 17.9573 18.1694L18.845 16.5392C18.8571 16.5458 18.8648 16.5483 18.8678 16.5491C18.8704 16.5498 18.8702 16.5495 18.8685 16.5495V18.4057ZM19.3277 17.4085C19.301 17.8653 19.1156 18.3083 18.7752 18.6491L17.462 17.3373C17.4654 17.3338 17.4674 17.3308 17.4691 17.327C17.4709 17.3228 17.4738 17.3143 17.4746 17.3001L19.3277 17.4085ZM18.7749 18.6495C18.4146 19.0097 17.931 19.2098 17.4216 19.2098V17.3536C17.4324 17.3536 17.4395 17.3516 17.4442 17.3497C17.449 17.3477 17.4551 17.3442 17.4623 17.337L18.7749 18.6495ZM17.4216 19.2098C16.397 19.2098 15.5748 18.4056 15.5156 17.4092L17.3685 17.2991C17.3695 17.3149 17.3759 17.3287 17.3874 17.3396C17.3929 17.3449 17.3986 17.3484 17.4035 17.3504C17.4078 17.3521 17.4133 17.3536 17.4216 17.3536V19.2098ZM16.8834 18.1706C16.5836 18.3326 16.2281 18.4261 15.8484 18.4017L15.9674 16.5493C15.9675 16.5493 15.9694 16.5495 15.9743 16.5483C15.9796 16.5471 15.9886 16.5442 16.0008 16.5377L16.8834 18.1706ZM15.8472 18.4016C14.8167 18.334 14.0613 17.4577 14.0613 16.462H15.9175C15.9175 16.4934 15.9289 16.5175 15.9432 16.5333C15.9571 16.5486 15.9666 16.5492 15.9687 16.5494L15.8472 18.4016ZM14.0613 16.462V12.0304H15.9175V16.462H14.0613ZM15.7932 12.4943L15.2886 13.3686L13.681 12.4406L14.1856 11.5664L15.7932 12.4943ZM15.2894 13.3671C14.9308 13.991 14.2633 14.3747 13.5454 14.3747V12.5185C13.6023 12.5185 13.6544 12.4869 13.6801 12.4421L15.2894 13.3671ZM13.5454 14.3747C13.1945 14.3747 12.849 14.2826 12.5437 14.1077L13.4665 12.4972C13.4915 12.5115 13.5189 12.5185 13.5454 12.5185V14.3747ZM12.5396 14.1054C12.1229 13.8638 11.8196 13.4707 11.6945 13.0024L13.4878 12.5233C13.487 12.5201 13.4847 12.5145 13.4802 12.5087C13.4757 12.5029 13.4716 12.5001 13.4706 12.4995L12.5396 14.1054ZM11.6948 13.0035C11.5692 12.5356 11.635 12.0422 11.8772 11.6238L13.4835 12.5539C13.4849 12.5516 13.4872 12.5463 13.4882 12.5388C13.4892 12.5313 13.4883 12.5253 13.4875 12.5223L11.6948 13.0035ZM12.6804 11.1608C12.2251 11.2801 11.8844 11.6117 11.8818 11.616C11.881 11.6174 11.8797 11.6195 11.8793 11.6202C11.8791 11.6206 11.8787 11.6213 11.8785 11.6215C11.8785 11.6217 11.8783 11.622 11.8782 11.622C11.8781 11.6223 11.8782 11.6222 11.8785 11.6216C11.8791 11.6205 11.8802 11.6187 11.8817 11.616C11.8848 11.6107 11.8894 11.6028 11.8954 11.5923C11.9075 11.5714 11.9253 11.5407 11.9479 11.5014C11.9933 11.423 12.0581 11.3106 12.1363 11.1753C12.2927 10.9045 12.5022 10.5417 12.7148 10.1734C13.1408 9.43554 13.5776 8.67888 13.6271 8.59262L15.2373 9.51608C15.186 9.60543 14.747 10.366 14.3223 11.1015C14.1096 11.4699 13.9001 11.8328 13.7437 12.1036C13.6655 12.2389 13.6006 12.3513 13.5552 12.4299C13.5325 12.4692 13.5147 12.5 13.5025 12.5211C13.4965 12.5316 13.4918 12.5397 13.4885 12.5453C13.487 12.548 13.4856 12.5503 13.4847 12.552C13.4842 12.5528 13.4837 12.5537 13.4831 12.5546C13.4829 12.555 13.4823 12.556 13.4816 12.5572C13.4812 12.558 13.4799 12.5602 13.479 12.5617C13.4764 12.566 13.1356 12.8976 12.6804 13.017V11.1608ZM13.5869 8.67109C13.5971 8.64856 13.6295 8.57592 13.6593 8.50897L15.3553 9.26322C15.327 9.32682 15.2912 9.40734 15.2774 9.43761L13.5869 8.67109ZM13.6593 8.50896C13.6722 8.47995 13.6864 8.44289 13.7068 8.38541L15.4563 9.00566C15.4311 9.07675 15.3978 9.1676 15.3553 9.26323L13.6593 8.50896ZM13.7067 8.38566C14.3353 6.61104 15.9175 5.48878 17.7989 5.48878V7.34497C16.7069 7.34497 15.8235 7.96891 15.4564 9.00541L13.7067 8.38566ZM17.7989 5.48878C20.3115 5.48878 22.2284 7.67972 22.2284 10.2136H20.3722C20.3722 8.56046 19.1477 7.34497 17.7989 7.34497V5.48878ZM22.2284 10.2136L22.2286 15.6251L20.3724 15.6252L20.3722 10.2137L22.2284 10.2136ZM22.2286 15.6251C22.2286 16.1341 22.0289 16.6174 21.6692 16.9778L20.3555 15.6665C20.3628 15.6591 20.3664 15.6529 20.3684 15.648C20.3704 15.6431 20.3724 15.636 20.3724 15.6251H22.2286ZM21.6686 16.9784C21.3084 17.3387 20.8247 17.5387 20.3153 17.5387V15.6825C20.3262 15.6825 20.3333 15.6805 20.338 15.6786C20.3428 15.6766 20.3489 15.6731 20.3561 15.6659L21.6686 16.9784ZM19.8288 15.8202L19.8289 15.8202L20.8017 17.401L20.8017 17.401L19.8288 15.8202ZM17.799 7.86851C16.9166 7.86851 16.2474 8.34055 15.9499 9.18055L14.2002 8.56071C14.759 6.98346 16.1263 6.01232 17.799 6.01232V7.86851ZM15.9491 9.18254C15.9199 9.26464 15.8818 9.36833 15.8337 9.47636L14.138 8.72145C14.1564 8.67992 14.1755 8.63011 14.2009 8.55871L15.9491 9.18254ZM15.8335 9.47685C15.791 9.57217 15.7554 9.65267 15.7281 9.7072C15.7112 9.74104 15.6838 9.7932 15.6441 9.85097C15.6039 9.9095 15.5641 9.95365 15.5609 9.95735L14.1631 8.73604C14.1653 8.73355 14.1646 8.73436 14.1635 8.73563C14.1621 8.73728 14.1585 8.74149 14.1537 8.74726C14.1488 8.75323 14.1426 8.76095 14.1357 8.77013C14.1287 8.77939 14.1215 8.78924 14.1144 8.79963C14.0998 8.82079 14.0887 8.83932 14.0807 8.85333C14.0733 8.86642 14.0687 8.87547 14.0677 8.87751C14.0666 8.87962 14.0673 8.87838 14.0704 8.87163C14.0735 8.86508 14.0778 8.85566 14.084 8.84195C14.0902 8.82835 14.0976 8.81193 14.1066 8.79164C14.1157 8.77138 14.126 8.74817 14.1382 8.72096L15.8335 9.47685ZM14.2554 10.0491L14.2518 10.046L15.465 8.64118L15.4686 8.64429L14.2554 10.0491ZM15.6785 9.77818C15.5332 10.0523 15.1185 10.77 13.9374 12.8151L12.33 11.8867C13.5278 9.81291 13.914 9.1436 14.0384 8.90898L15.6785 9.77818ZM13.937 12.8157C14.0113 12.6874 14.032 12.5325 13.9938 12.3888L12.1998 12.8656C12.1118 12.5343 12.1584 12.1833 12.3304 11.886L13.937 12.8157ZM13.993 12.3859C13.9548 12.2441 13.8609 12.12 13.7304 12.0447L12.8024 13.6522C12.5042 13.4801 12.2893 13.1979 12.2006 12.8685L13.993 12.3859ZM13.7286 12.0437C13.623 11.983 13.5202 11.9834 13.4493 12.0025C13.3786 12.0215 13.288 12.073 13.226 12.1811L14.8358 13.1051C14.4314 13.8099 13.507 14.0569 12.8041 13.6532L13.7286 12.0437ZM13.2272 12.1789L14.2209 10.4586L15.8282 11.387L14.8346 13.1073L13.2272 12.1789ZM14.2214 10.4576C14.4895 9.99483 15.0367 9.76322 15.5615 9.90528L15.0766 11.697C15.3712 11.7767 15.6783 11.6458 15.8276 11.388L14.2214 10.4576ZM15.5592 9.90466C16.0799 10.0441 16.4412 10.516 16.4412 11.054H14.585C14.585 11.3552 14.7872 11.6195 15.0789 11.6976L15.5592 9.90466ZM16.4412 11.054V16.4621H14.585V11.054H16.4412ZM16.4412 16.4621C16.4412 16.3564 16.402 16.2602 16.3377 16.1867C16.2735 16.1132 16.1601 16.0374 16.0032 16.027L15.8813 17.8792C15.1 17.8278 14.585 17.1472 14.585 16.4621H16.4412ZM15.9913 16.0263C15.8816 16.0205 15.7477 16.0607 15.6459 16.1623L16.9572 17.476C16.6642 17.7685 16.2758 17.9001 15.8932 17.8799L15.9913 16.0263ZM15.6453 16.1629C15.5572 16.251 15.5083 16.3716 15.5083 16.4926H17.3645C17.3645 16.8613 17.2197 17.2135 16.9578 17.4754L15.6453 16.1629ZM15.5083 16.4926V12.9556H17.3645V16.4926H15.5083ZM15.5083 12.9556C15.5083 12.2984 16.041 11.7657 16.6983 11.7657V13.6218C17.0662 13.6218 17.3645 13.3236 17.3645 12.9556H15.5083ZM16.6983 11.7657C17.3551 11.7657 17.8882 12.2979 17.8882 12.9556H16.0321C16.0321 13.3238 16.3307 13.6218 16.6983 13.6218V11.7657ZM17.8882 12.9557L17.8881 17.2966L16.0319 17.2966L16.0321 12.9556L17.8882 12.9557ZM17.8881 17.2966C17.8881 17.0385 17.6797 16.8301 17.4216 16.8301V18.6863C16.6545 18.6863 16.0319 18.0637 16.0319 17.2966H17.8881ZM17.4216 16.8301C17.3008 16.8301 17.1807 16.8788 17.0928 16.9665L18.4041 18.2803C18.142 18.5419 17.7897 18.6863 17.4216 18.6863V16.8301ZM17.0916 16.9678C17.0038 17.0557 16.9552 17.1758 16.9552 17.2966H18.8114C18.8114 17.6647 18.6669 18.017 18.4053 18.2791L17.0916 16.9678ZM16.9552 17.2966V12.9556H18.8114V17.2966H16.9552ZM16.9552 12.9556C16.9552 12.2988 17.4874 11.7656 18.1452 11.7656V13.6218C18.5133 13.6218 18.8114 13.3232 18.8114 12.9556H16.9552ZM18.1452 11.7656C18.802 11.7656 19.3352 12.2979 19.3352 12.9556H17.479C17.479 13.3238 17.7776 13.6218 18.1452 13.6218V11.7656ZM19.3352 12.9557L19.335 16.452L17.4788 16.4519L17.479 12.9556L19.3352 12.9557ZM19.335 16.4519V16.4926H17.4788V16.4519H19.335ZM19.335 16.4926C19.335 16.2339 19.1261 16.026 18.8687 16.026V17.8822C18.1019 17.8822 17.4788 17.26 17.4788 16.4926H19.335ZM18.8687 16.026C18.7454 16.026 18.626 16.0761 18.5405 16.1613L19.8506 17.4763C19.5899 17.7359 19.239 17.8822 18.8687 17.8822V16.026ZM18.5399 16.1619C18.4511 16.2505 18.4022 16.3716 18.4022 16.4924H20.2584C20.2584 16.8609 20.1138 17.2136 19.8512 17.4757L18.5399 16.1619ZM18.4022 16.4924V12.9555H20.2584V16.4924H18.4022ZM18.4022 12.9555C18.4022 12.2986 18.9345 11.7655 19.5922 11.7655V13.6217C19.9604 13.6217 20.2584 13.323 20.2584 12.9555H18.4022ZM19.5922 11.7655C20.2491 11.7655 20.7822 12.2977 20.7822 12.9555H18.926C18.926 13.3236 19.2247 13.6217 19.5922 13.6217V11.7655ZM20.7822 12.9556L20.7819 15.6254L18.9257 15.6251L18.926 12.9553L20.7822 12.9556ZM20.7819 15.6253C20.7819 15.3678 20.5739 15.159 20.3153 15.159V17.0152C19.5479 17.0152 18.9257 16.3921 18.9257 15.6253H20.7819ZM20.3153 15.159C20.1935 15.159 20.0734 15.2083 19.9861 15.2954L21.2974 16.6091C21.0363 16.8698 20.6846 17.0152 20.3153 17.0152V15.159ZM19.9855 15.296C19.8971 15.3844 19.8486 15.505 19.8486 15.6253H21.7048C21.7048 15.9928 21.5609 16.3457 21.298 16.6085L19.9855 15.296ZM19.8486 15.6252L19.8488 10.2137L21.705 10.2138L21.7048 15.6253L19.8486 15.6252ZM19.8488 10.2138C19.8488 8.83704 18.8478 7.86856 17.7989 7.86856V6.01238C20.0343 6.01238 21.705 7.98106 21.705 10.2138H19.8488ZM16.9066 6.6855L16.9066 6.68545L18.6913 7.19538L18.6913 7.19544L16.9066 6.6855Z" fill="#4CAF4F" mask="url(#path-1-inside-1_2303_1406)"/>
<path d="M11.8327 21.5855C11.7084 21.6602 11.5477 21.6199 11.4734 21.4958C11.3989 21.3718 11.4393 21.2109 11.5631 21.1365M11.8327 21.5855L14.0953 18.5409C14.3139 18.4096 14.6022 18.4614 14.737 18.6564M11.8327 21.5855L14.8656 19.766H14.8657L14.8661 19.7658M11.8327 21.5855L16.0301 20.1441C16.136 20.0805 16.2108 19.9798 16.2406 19.8603M11.5631 21.1365L14.5961 19.3169C14.7021 19.2533 14.777 19.1525 14.8069 19.0332M11.5631 21.1365L11.5938 21.1876L11.6978 21.361L11.698 21.3613L11.7449 21.4395L11.8018 21.5344L11.8019 21.5343L11.802 21.5343L11.8022 21.5341M11.5631 21.1365L11.5939 21.1876M14.8069 19.0332C14.8397 18.9024 14.8147 18.7686 14.737 18.6564M14.8069 19.0332L14.8817 19.052L14.8746 18.8981C14.8696 18.7922 14.8387 18.6982 14.7862 18.6227L14.7861 18.6224L14.737 18.6564M14.8069 19.0332L14.8817 19.052L14.8891 19.2108L14.7373 19.3019H14.737L14.6268 19.368L14.6268 19.368L14.6268 19.3681L11.594 21.1875M14.737 18.6564L14.7861 18.6224L12.5467 22.7749C12.642 22.7176 12.6735 22.5937 12.6157 22.4976C12.5585 22.4022 12.4342 22.3709 12.3385 22.4283L15.3714 20.6089C15.4411 20.567 15.5141 20.5354 15.5887 20.5137L16.0591 20.1925L16.0591 20.1925L16.085 20.1748C16.1954 20.0994 16.2684 19.995 16.2984 19.8748L16.2984 19.8747L16.2406 19.8603M11.594 21.1875C11.6894 21.1305 11.8136 21.1614 11.8712 21.2569C11.8713 21.2571 11.8715 21.2573 11.8716 21.2575C11.9288 21.3535 11.8973 21.477 11.8022 21.5341M11.594 21.1875C11.5939 21.1876 11.5939 21.1876 11.5939 21.1876M11.594 21.1875L11.5939 21.1876M11.8022 21.5341L14.8349 19.7149L14.8349 19.7149L14.8351 19.7148C14.8352 19.7147 14.8352 19.7146 14.8353 19.7146L14.8656 19.765L14.8657 19.7652L14.8661 19.7658M11.8022 21.5341L11.6982 21.3612L11.698 21.3609L11.6629 21.3024L11.5939 21.1876M14.8661 19.7658V19.6953C14.9246 19.657 14.9781 19.6126 15.026 19.563L15.5252 19.3024L15.5252 19.3024L15.5528 19.288C15.6331 19.2461 15.714 19.2265 15.7909 19.2265C15.8325 19.2265 15.8753 19.2316 15.919 19.2425C15.919 19.2425 15.9191 19.2425 15.9191 19.2425C15.9192 19.2425 15.9194 19.2426 15.9195 19.2426L16.0172 18.8502M14.8661 19.7658L15.5552 19.3524C15.6608 19.2891 15.7844 19.2705 15.9046 19.3004C16.0242 19.3302 16.125 19.405 16.1885 19.5108C16.252 19.6167 16.2705 19.7409 16.2406 19.8603M16.0172 18.8502C16.0172 18.8502 16.0172 18.8502 16.0172 18.8502M16.0172 18.8502C16.2563 18.91 16.4597 19.0609 16.5863 19.2719L16.6374 19.2413M16.0172 18.8502L16.0316 18.7923M16.0172 18.8502L15.9192 19.2425C16.0549 19.2764 16.1674 19.3598 16.2395 19.4799C16.2395 19.48 16.2395 19.4801 16.2396 19.4801C16.2396 19.4801 16.2396 19.4802 16.2396 19.4802C16.3119 19.6009 16.3323 19.7393 16.2984 19.8745L16.2984 19.8747L16.2406 19.8603M16.0172 18.8502C16.0171 18.8502 16.0171 18.8502 16.017 18.8502L16.0164 18.85C15.9447 18.8322 15.8721 18.8231 15.7998 18.8225M16.0172 18.8502L16.0316 18.7923M15.5796 20.9555L15.8412 20.7986L16.1109 20.9577C16.1917 21.0054 16.2528 21.065 16.2941 21.134L16.2942 21.1343C16.2942 21.1343 16.2943 21.1344 16.2943 21.1345L16.2434 21.1651M15.5796 20.9555L16.3534 21.5291C16.3871 21.3934 16.3665 21.2551 16.2944 21.1345L16.2434 21.1651M15.5796 20.9555L15.6103 21.0067M15.5796 20.9555L15.5795 20.9555L15.6103 21.0067M16.2434 21.1651C16.1124 20.9468 15.8282 20.8758 15.6103 21.0067M16.2434 21.1651C16.3071 21.2709 16.3256 21.3952 16.2957 21.5147L15.6103 21.0067M16.6856 20.8848C16.6878 20.8884 16.69 20.892 16.6922 20.8957L16.6856 20.8848ZM16.6856 20.8848C16.6699 20.897 16.654 20.909 16.6378 20.9206C16.6389 20.9224 16.64 20.9241 16.6411 20.9259L16.6856 20.8848ZM16.6134 20.1771C16.6468 20.113 16.6729 20.0445 16.6908 19.9728L16.6134 20.1771ZM16.6134 20.1771C16.63 20.1874 16.6465 20.1981 16.6629 20.2092C16.7001 20.1399 16.7291 20.0656 16.7486 19.9871C16.8124 19.7321 16.7729 19.4673 16.6374 19.2413M16.6134 20.1771L16.6909 19.9727C16.7506 19.7336 16.7129 19.4833 16.5866 19.2723L16.5864 19.272C16.5864 19.272 16.5864 19.272 16.5863 19.2719L16.6374 19.2413M16.6374 19.2413C16.5021 19.0157 16.287 18.8561 16.0316 18.7923M16.0316 18.7923L15.7946 18.7625M15.7946 18.7625C15.7967 18.7825 15.7985 18.8025 15.7998 18.8225M15.7946 18.7625C15.7933 18.7625 15.7921 18.7624 15.7909 18.7624C15.634 18.7624 15.4798 18.8026 15.3381 18.8766M15.7946 18.7625L15.3381 18.8766M15.7998 18.8225C15.8005 18.8333 15.8012 18.8442 15.8017 18.8551L15.7909 18.8556L15.5028 18.8689M15.7998 18.8225C15.7968 18.8224 15.7939 18.8224 15.7909 18.8224C15.693 18.8225 15.5958 18.8382 15.5028 18.8689M15.5028 18.8689L15.3381 18.8766M15.5028 18.8689C15.4555 18.8846 15.4094 18.9041 15.3646 18.9274C15.3484 18.9359 15.3324 18.9449 15.3166 18.9543L15.3164 18.9544L15.2834 18.9742M15.3381 18.8766L15.0736 19.1001L15.0737 19.1L15.257 19.1459C15.257 19.146 15.257 19.146 15.257 19.1461C15.2713 19.089 15.28 19.0315 15.2834 18.9742M15.3381 18.8766L15.2673 18.7409M15.3381 18.8766C15.3308 18.7185 15.2891 18.5628 15.2091 18.4238C15.1909 18.4319 15.1729 18.4404 15.155 18.4492M15.2834 18.9742C15.2853 18.9424 15.2855 18.9107 15.2841 18.8791C15.282 18.8325 15.2764 18.7864 15.2673 18.7409M15.2834 18.9742L15.2673 18.7409M15.2673 18.7409L15.1234 18.4652C15.1339 18.4597 15.1444 18.4544 15.155 18.4492M15.2673 18.7409L15.1185 18.3922C15.1314 18.4108 15.1436 18.4298 15.155 18.4492M15.2673 18.7409C15.2469 18.6388 15.2091 18.5404 15.155 18.4492M16.3467 20.558L16.426 20.4235C16.3916 20.4557 16.3547 20.4853 16.3154 20.5122C16.3003 20.5225 16.2848 20.5324 16.269 20.5419L16.2688 20.5421L16.2353 20.5622L16.3467 20.558ZM8.93587 18.3984L8.88311 18.3706C8.87341 18.3881 8.84927 18.4316 8.8136 18.4958C8.80477 18.5118 8.79523 18.5289 8.78503 18.5473C8.80321 18.5564 8.82155 18.5643 8.83993 18.5713C8.8713 18.5147 8.90328 18.4571 8.93587 18.3984ZM13.0828 23.669C13.0828 23.6691 13.0828 23.6691 13.0827 23.6691L13.0828 23.669Z" fill="#4CAF4F" stroke="#4CAF4F" stroke-width="0.928093"/>
<path d="M24.7846 19.2345L24.7845 19.2345L24.7846 19.2345ZM24.7846 19.2345C24.6874 19.0603 24.6913 18.8458 24.7943 18.6741L24.7846 19.2345ZM19.043 18.8222C18.9705 18.8228 18.8976 18.832 18.8257 18.85L19.043 18.8222ZM19.043 18.8222C19.0444 18.8023 19.0461 18.7823 19.0483 18.7623L19.043 18.8222ZM24.3669 19.5599L24.3275 19.4889L24.3669 19.5599ZM23.2488 21.1874C23.2487 21.1874 23.2486 21.1873 23.2485 21.1873L23.2487 21.1874L23.2488 21.1874ZM21.7599 23.6694C21.7598 23.6693 21.7597 23.6693 21.7596 23.6692L21.7599 23.6694ZM21.7595 23.6691L21.7596 23.6692L21.7595 23.6691Z" fill="#4CAF4F" stroke="#4CAF4F" stroke-width="0.928093"/>
</svg>
