<svg width="35" height="34" viewBox="0 0 35 34" fill="none" xmlns="http://www.w3.org/2000/svg">
<path d="M4.43671 11.4801V11.8282H4.78474H29.8432H30.1913V11.4801V9.91397C30.1913 9.12938 29.8796 8.37693 29.3248 7.82214C28.77 7.26735 28.0176 6.95567 27.233 6.95567H7.395C6.61041 6.95567 5.85796 7.26735 5.30317 7.82214C4.74838 8.37693 4.43671 9.12938 4.43671 9.91397V11.4801ZM30.1913 13.5683V13.2203H29.8432H4.78474H4.43671V13.5683V23.4873C4.43671 24.2719 4.74838 25.0244 5.30317 25.5792C5.85796 26.1339 6.61041 26.4456 7.395 26.4456H27.233C28.0176 26.4456 28.77 26.1339 29.3248 25.5792C29.8796 25.0244 30.1913 24.2719 30.1913 23.4873V13.5683ZM3.04457 9.91397C3.04457 8.76016 3.50292 7.65361 4.31878 6.83775C5.13465 6.02188 6.2412 5.56353 7.395 5.56353H27.233C28.3868 5.56353 29.4933 6.02188 30.3092 6.83775C31.1251 7.65361 31.5834 8.76016 31.5834 9.91397V23.4873C31.5834 24.6411 31.1251 25.7477 30.3092 26.5635C29.4933 27.3794 28.3868 27.8378 27.233 27.8378H7.395C6.2412 27.8378 5.13465 27.3794 4.31878 26.5635C3.50292 25.7477 3.04457 24.6411 3.04457 23.4873V9.91397ZM22.5345 20.181H25.6668C25.8514 20.181 26.0285 20.2543 26.159 20.3849C26.2896 20.5154 26.3629 20.6925 26.3629 20.8771C26.3629 21.0617 26.2896 21.2387 26.159 21.3693C26.0285 21.4998 25.8514 21.5731 25.6668 21.5731H22.5345C22.3499 21.5731 22.1729 21.4998 22.0423 21.3693C21.9118 21.2387 21.8384 21.0617 21.8384 20.8771C21.8384 20.6925 21.9118 20.5154 22.0423 20.3849C22.1729 20.2543 22.3499 20.181 22.5345 20.181Z" fill="#4CAF4F" stroke="#4CAF4F" stroke-width="0.696069"/>
</svg>
