<svg width="46" height="40" viewBox="0 0 46 40" fill="none" xmlns="http://www.w3.org/2000/svg">
<path d="M45.7925 27.4136C45.7925 34.3333 40.1829 39.9429 33.2632 39.9429L14.4694 39.9429C12.5472 39.9429 10.989 38.3847 10.989 36.4625L10.989 12.7962C10.989 8.95187 14.1054 5.83547 17.9497 5.83547L42.3121 5.83547C44.2343 5.83547 45.7925 7.39367 45.7925 9.31581L45.7925 27.4136Z" fill="#E8F5E9"/>
<path d="M19.2836 14.1959C19.0665 14.1959 18.8899 14.0196 18.8899 13.8022V13.133C18.8899 12.9158 19.0662 12.7393 19.2836 12.7393C19.5008 12.7393 19.6774 12.9155 19.6774 13.133V13.8022C19.6774 14.0196 19.5008 14.1959 19.2836 14.1959Z" fill="#103E13"/>
<path d="M17.6281 14.1959C17.4109 14.1959 17.2344 14.0196 17.2344 13.8022V13.133C17.2344 12.9158 17.4107 12.7393 17.6281 12.7393C17.8453 12.7393 18.0219 12.9155 18.0219 13.133V13.8022C18.0216 14.0196 17.8456 14.1959 17.6281 14.1959Z" fill="#103E13"/>
<path d="M15.9729 14.1959C15.7557 14.1959 15.5791 14.0196 15.5791 13.8022V13.133C15.5791 12.9158 15.7554 12.7393 15.9729 12.7393C16.19 12.7393 16.3666 12.9155 16.3666 13.133V13.8022C16.3666 14.0196 16.1903 14.1959 15.9729 14.1959Z" fill="#103E13"/>
<path d="M19.2836 16.9323C19.0665 16.9323 18.8899 16.756 18.8899 16.5385V15.8696C18.8899 15.6525 19.0662 15.4759 19.2836 15.4759C19.5008 15.4759 19.6774 15.6522 19.6774 15.8696V16.5385C19.6774 16.756 19.5008 16.9323 19.2836 16.9323Z" fill="#103E13"/>
<path d="M17.6281 16.9323C17.4109 16.9323 17.2344 16.756 17.2344 16.5385V15.8696C17.2344 15.6525 17.4107 15.4759 17.6281 15.4759C17.8453 15.4759 18.0219 15.6522 18.0219 15.8696V16.5385C18.0216 16.756 17.8456 16.9323 17.6281 16.9323Z" fill="#103E13"/>
<path d="M15.9729 16.9323C15.7557 16.9323 15.5791 16.756 15.5791 16.5385V15.8696C15.5791 15.6525 15.7554 15.4759 15.9729 15.4759C16.19 15.4759 16.3666 15.6522 16.3666 15.8696V16.5385C16.3666 16.756 16.1903 16.9323 15.9729 16.9323Z" fill="#103E13"/>
<path d="M19.2836 19.6687C19.0665 19.6687 18.8899 19.4925 18.8899 19.275V18.6058C18.8899 18.3887 19.0662 18.2121 19.2836 18.2121C19.5008 18.2121 19.6774 18.3884 19.6774 18.6058V19.275C19.6774 19.4925 19.5008 19.6687 19.2836 19.6687Z" fill="#103E13"/>
<path d="M17.6281 19.6687C17.4109 19.6687 17.2344 19.4925 17.2344 19.275V18.6058C17.2344 18.3887 17.4107 18.2121 17.6281 18.2121C17.8453 18.2121 18.0219 18.3884 18.0219 18.6058V19.275C18.0216 19.4925 17.8456 19.6687 17.6281 19.6687Z" fill="#103E13"/>
<path d="M15.9729 19.6687C15.7557 19.6687 15.5791 19.4925 15.5791 19.275V18.6058C15.5791 18.3887 15.7554 18.2121 15.9729 18.2121C16.19 18.2121 16.3666 18.3884 16.3666 18.6058V19.275C16.3666 19.4925 16.1903 19.6687 15.9729 19.6687Z" fill="#103E13"/>
<path d="M19.2836 22.4046C19.0665 22.4046 18.8899 22.2283 18.8899 22.0108V21.3417C18.8899 21.1245 19.0662 20.9479 19.2836 20.9479C19.5008 20.9479 19.6774 21.1242 19.6774 21.3417V22.0108C19.6774 22.2283 19.5008 22.4046 19.2836 22.4046Z" fill="#103E13"/>
<path d="M17.6281 22.4046C17.4109 22.4046 17.2344 22.2283 17.2344 22.0108V21.3417C17.2344 21.1245 17.4107 20.9479 17.6281 20.9479C17.8453 20.9479 18.0219 21.1242 18.0219 21.3417V22.0108C18.0216 22.2283 17.8456 22.4046 17.6281 22.4046Z" fill="#103E13"/>
<path d="M15.9729 22.4046C15.7557 22.4046 15.5791 22.2283 15.5791 22.0108V21.3417C15.5791 21.1245 15.7554 20.9479 15.9729 20.9479C16.19 20.9479 16.3666 21.1242 16.3666 21.3417V22.0108C16.3666 22.2283 16.1903 22.4046 15.9729 22.4046Z" fill="#103E13"/>
<path d="M19.2836 25.1409C19.0665 25.1409 18.8899 24.9647 18.8899 24.7472V24.0783C18.8899 23.8611 19.0662 23.6846 19.2836 23.6846C19.5008 23.6846 19.6774 23.8609 19.6774 24.0783V24.7472C19.6774 24.9644 19.5008 25.1409 19.2836 25.1409Z" fill="#103E13"/>
<path d="M17.6281 25.1409C17.4109 25.1409 17.2344 24.9647 17.2344 24.7472V24.0783C17.2344 23.8611 17.4107 23.6846 17.6281 23.6846C17.8453 23.6846 18.0219 23.8609 18.0219 24.0783V24.7472C18.0216 24.9644 17.8456 25.1409 17.6281 25.1409Z" fill="#103E13"/>
<path d="M15.9729 25.1409C15.7557 25.1409 15.5791 24.9647 15.5791 24.7472L15.5794 24.0783C15.5794 23.8611 15.7557 23.6846 15.9731 23.6846C16.1903 23.6846 16.3669 23.8609 16.3669 24.0783V24.7472C16.3666 24.9644 16.1903 25.1409 15.9729 25.1409Z" fill="#103E13"/>
<path d="M4.7247 27.8641C4.7247 28.0813 4.90097 28.2579 5.11844 28.2579H29.0965C29.3137 28.2579 29.4902 28.0816 29.4902 27.8641C29.4902 27.6469 29.3139 27.4704 29.0965 27.4704H28.3686V16.1653C28.3686 15.9481 28.1923 15.7716 27.9749 15.7716L21.5462 15.7718V7.62147C21.5462 7.48364 21.4742 7.35623 21.3567 7.28484C21.2394 7.21317 21.0928 7.20878 20.9709 7.2722L13.6619 11.0776C13.5315 11.1454 13.4502 11.28 13.4502 11.4269V18.5461H6.37675C6.15956 18.5461 5.983 18.7223 5.983 18.9398V27.4704H5.11757C4.90038 27.4702 4.72437 27.6464 4.72437 27.8639L4.7247 27.8641ZM21.5463 21.7353H27.5815V27.4707L21.5463 27.4704V21.7353ZM21.5463 18.9991H27.5815V20.9481L21.5463 20.9478V18.9991ZM21.5463 16.5589H27.5815V18.2122H21.5463V16.5589ZM14.2373 11.666L20.7585 8.2705V27.4701H14.2373V11.666ZM8.71693 24.3256C8.71693 23.5084 9.36439 22.8434 10.1604 22.8434C10.9564 22.8434 11.6041 23.5081 11.6041 24.3256V27.4706H8.71693V24.3256ZM6.77048 19.3334H13.4501V27.4704H12.3916V24.3254C12.3916 23.0741 11.3911 22.056 10.1604 22.056C8.93027 22.056 7.92973 23.0739 7.92973 24.3254V27.4704H6.77048V19.3334Z" fill="#103E13"/>
</svg>
