<svg width="124" height="24" viewBox="0 0 124 24" fill="none" xmlns="http://www.w3.org/2000/svg">
<g clip-path="url(#clip0_4303_715)">
<path opacity="0.1" fill-rule="evenodd" clip-rule="evenodd" d="M0.85144 11.9059C0.85144 5.75505 5.8377 0.768799 11.9886 0.768799C18.1394 0.768799 23.1257 5.75505 23.1257 11.9059C23.1257 18.0568 18.1394 23.043 11.9886 23.043C5.8377 23.043 0.85144 18.0568 0.85144 11.9059Z" fill="white"/>
<path fill-rule="evenodd" clip-rule="evenodd" d="M11.9891 5.96606C10.3759 5.96606 10.1734 5.97312 9.53986 6.00195C8.90751 6.03091 8.47588 6.13102 8.0982 6.27791C7.70753 6.42962 7.37614 6.63257 7.04598 6.96285C6.71558 7.293 6.51263 7.6244 6.36042 8.01494C6.21317 8.39274 6.11293 8.8245 6.08447 9.4566C6.05613 10.0902 6.04871 10.2928 6.04871 11.9059C6.04871 13.5191 6.05588 13.7209 6.08459 14.3545C6.11367 14.9868 6.21378 15.4185 6.36055 15.7962C6.51239 16.1868 6.71533 16.5182 7.04561 16.8484C7.37564 17.1788 7.70704 17.3822 8.09746 17.5339C8.47538 17.6808 8.90714 17.7809 9.53936 17.8099C10.1729 17.8387 10.3753 17.8458 11.9883 17.8458C13.6016 17.8458 13.8034 17.8387 14.437 17.8099C15.0694 17.7809 15.5015 17.6808 15.8794 17.5339C16.27 17.3822 16.6009 17.1788 16.9309 16.8484C17.2613 16.5182 17.4642 16.1868 17.6164 15.7963C17.7625 15.4185 17.8627 14.9867 17.8924 14.3546C17.9209 13.721 17.9283 13.5191 17.9283 11.9059C17.9283 10.2928 17.9209 10.0903 17.8924 9.45672C17.8627 8.82437 17.7625 8.39274 17.6164 8.01507C17.4642 7.6244 17.2613 7.293 16.9309 6.96285C16.6005 6.63244 16.2701 6.4295 15.879 6.27791C15.5004 6.13102 15.0685 6.03091 14.4362 6.00195C13.8026 5.97312 13.6009 5.96606 11.9872 5.96606H11.9891ZM11.4562 7.03646C11.6143 7.03621 11.7908 7.03646 11.989 7.03646C13.575 7.03646 13.7629 7.04215 14.3892 7.07061C14.9684 7.0971 15.2827 7.19387 15.4921 7.27517C15.7693 7.38283 15.9669 7.51152 16.1746 7.71942C16.3825 7.92731 16.5112 8.12531 16.6191 8.4025C16.7004 8.61163 16.7973 8.92595 16.8237 9.50509C16.8522 10.1312 16.8583 10.3193 16.8583 11.9045C16.8583 13.4897 16.8522 13.6778 16.8237 14.304C16.7972 14.8831 16.7004 15.1974 16.6191 15.4066C16.5115 15.6838 16.3825 15.8812 16.1746 16.0889C15.9668 16.2968 15.7694 16.4255 15.4921 16.5332C15.2829 16.6148 14.9684 16.7114 14.3892 16.7379C13.7631 16.7663 13.575 16.7725 11.989 16.7725C10.403 16.7725 10.215 16.7663 9.58883 16.7379C9.0097 16.7111 8.69538 16.6144 8.48588 16.533C8.20868 16.4254 8.01069 16.2967 7.80279 16.0888C7.5949 15.8809 7.4662 15.6834 7.35829 15.4061C7.27699 15.197 7.1801 14.8826 7.15374 14.3035C7.12528 13.6773 7.11959 13.4892 7.11959 11.9031C7.11959 10.3169 7.12528 10.1298 7.15374 9.5036C7.18022 8.92447 7.27699 8.61015 7.35829 8.40077C7.46595 8.12358 7.5949 7.92558 7.80279 7.71769C8.01069 7.50979 8.20868 7.38109 8.48588 7.27319C8.69526 7.19151 9.0097 7.09499 9.58883 7.06839C10.1368 7.04364 10.3491 7.03621 11.4562 7.03497V7.03646ZM15.1597 8.02272C14.7662 8.02272 14.4469 8.34162 14.4469 8.73526C14.4469 9.12878 14.7662 9.44804 15.1597 9.44804C15.5532 9.44804 15.8725 9.12878 15.8725 8.73526C15.8725 8.34174 15.5532 8.02272 15.1597 8.02272ZM11.9891 8.85554C10.3045 8.85554 8.9387 10.2213 8.9387 11.9059C8.9387 13.5905 10.3045 14.9556 11.9891 14.9556C13.6736 14.9556 15.0389 13.5905 15.0389 11.9059C15.0389 10.2213 13.6736 8.85554 11.9891 8.85554ZM11.989 9.92595C13.0825 9.92595 13.969 10.8124 13.969 11.9059C13.969 12.9993 13.0825 13.8859 11.989 13.8859C10.8955 13.8859 10.0091 12.9993 10.0091 11.9059C10.0091 10.8124 10.8955 9.92595 11.989 9.92595Z" fill="white"/>
<path opacity="0.1" fill-rule="evenodd" clip-rule="evenodd" d="M34.2628 11.9059C34.2628 5.75505 39.2491 0.768799 45.3999 0.768799C51.5508 0.768799 56.537 5.75505 56.537 11.9059C56.537 18.0568 51.5508 23.043 45.3999 23.043C39.2491 23.043 34.2628 18.0568 34.2628 11.9059Z" fill="white"/>
<path fill-rule="evenodd" clip-rule="evenodd" d="M51.3397 11.8976C51.3397 12.2993 51.2988 12.7005 51.2184 13.0915C51.1401 13.4732 51.0241 13.848 50.8721 14.2062C50.7236 14.5582 50.5395 14.8973 50.3242 15.2135C50.1122 15.5278 49.868 15.8227 49.5997 16.0914C49.3308 16.359 49.035 16.6026 48.7209 16.8155C48.4036 17.0292 48.064 17.2131 47.7118 17.3623C47.3531 17.5135 46.9774 17.6293 46.596 17.7075C46.2045 17.788 45.8019 17.8292 45.3996 17.8292C44.997 17.8292 44.5945 17.788 44.2035 17.7075C43.8215 17.6293 43.4459 17.5135 43.0874 17.3623C42.7353 17.2131 42.3953 17.0292 42.078 16.8155C41.7639 16.6026 41.4681 16.359 41.1998 16.0914C40.9312 15.8227 40.687 15.5278 40.4747 15.2135C40.2606 14.8973 40.0761 14.5581 39.9271 14.2062C39.7751 13.848 39.6588 13.4732 39.5802 13.0915C39.5007 12.7005 39.4601 12.2993 39.4601 11.8976C39.4601 11.4956 39.5007 11.0936 39.5802 10.7035C39.6588 10.3217 39.7751 9.94639 39.9271 9.58871C40.0762 9.23653 40.2606 8.8971 40.4747 8.58081C40.687 8.26629 40.9312 7.97201 41.1998 7.70295C41.4681 7.43532 41.7639 7.19235 42.0781 6.97976C42.3954 6.76514 42.7353 6.58125 43.0874 6.43179C43.4459 6.28028 43.8215 6.16416 44.2035 6.08655C44.5945 6.00662 44.9971 5.96606 45.3996 5.96606C45.8019 5.96606 46.2045 6.00662 46.596 6.08655C46.9774 6.16418 47.3531 6.28031 47.7119 6.43179C48.064 6.58123 48.4036 6.76514 48.7209 6.97976C49.035 7.19235 49.3309 7.43532 49.5997 7.70295C49.868 7.97201 50.1123 8.26629 50.3243 8.58081C50.5395 8.8971 50.7236 9.23656 50.8721 9.58871C51.0241 9.94639 51.1401 10.3217 51.2184 10.7035C51.2988 11.0936 51.3397 11.4956 51.3397 11.8976ZM43.2353 7.31601C41.8207 7.98303 40.765 9.2846 40.4358 10.8532C40.5695 10.8544 42.6833 10.881 45.1188 10.2349C44.2409 8.67724 43.3029 7.40611 43.2353 7.31601ZM45.5391 11.0149C42.9272 11.7957 40.421 11.7395 40.3311 11.736C40.3296 11.7905 40.327 11.8432 40.327 11.8976C40.327 13.1989 40.8186 14.3852 41.6267 15.2822C41.6249 15.2796 43.0131 12.8204 45.7505 11.9364C45.8166 11.9144 45.884 11.8947 45.9507 11.8756C45.8233 11.5877 45.6844 11.2993 45.5391 11.0149ZM48.7496 8.09598C47.8565 7.30963 46.6839 6.83264 45.3996 6.83264C44.9874 6.83264 44.5875 6.88247 44.2043 6.97456C44.2803 7.07652 45.2331 8.3387 46.1006 9.9293C48.0146 9.21278 48.7371 8.11451 48.7496 8.09598ZM46.2964 12.7149C46.2851 12.7187 46.2738 12.7219 46.2628 12.7259C43.2699 13.7678 42.2925 15.8675 42.2819 15.8904C43.1431 16.5591 44.2232 16.9626 45.3996 16.9626C46.1021 16.9626 46.7712 16.8198 47.38 16.5612C47.3049 16.1186 47.0102 14.5674 46.2964 12.7149ZM48.2342 16.0984C49.3732 15.3309 50.1821 14.1121 50.4078 12.7004C50.3033 12.6668 48.8842 12.2182 47.2469 12.4803C47.9122 14.3061 48.1826 15.7931 48.2342 16.0984ZM46.4911 10.6841C46.6088 10.9256 46.7228 11.1715 46.8281 11.4186C46.8655 11.5072 46.9021 11.5941 46.9377 11.681C48.6803 11.462 50.3971 11.8304 50.4705 11.8455C50.4589 10.6447 50.0287 9.54265 49.317 8.67987C49.3074 8.69345 48.4938 9.86731 46.4911 10.6841Z" fill="white"/>
<path opacity="0.1" fill-rule="evenodd" clip-rule="evenodd" d="M67.6741 11.9059C67.6741 5.75505 72.6603 0.768799 78.8112 0.768799C84.962 0.768799 89.9483 5.75505 89.9483 11.9059C89.9483 18.0568 84.962 23.043 78.8112 23.043C72.6603 23.043 67.6741 18.0568 67.6741 11.9059Z" fill="white"/>
<path fill-rule="evenodd" clip-rule="evenodd" d="M78.4777 9.82117L78.501 10.2065L78.1115 10.1593C76.6937 9.97846 75.4551 9.36502 74.4034 8.33474L73.8893 7.82354L73.7568 8.20104C73.4764 9.04256 73.6556 9.93127 74.2398 10.529C74.5514 10.8593 74.4813 10.9065 73.9438 10.7099C73.7568 10.647 73.5932 10.5998 73.5777 10.6234C73.5231 10.6784 73.7101 11.3941 73.8581 11.6772C74.0606 12.0705 74.4735 12.4558 74.9254 12.6839L75.3071 12.8648L74.8552 12.8727C74.419 12.8727 74.4034 12.8805 74.4502 13.0457C74.606 13.5569 75.2214 14.0996 75.9069 14.3355L76.3899 14.5006L75.9692 14.7523C75.346 15.1141 74.6137 15.3186 73.8815 15.3343C73.5309 15.3422 73.2427 15.3736 73.2427 15.3972C73.2427 15.4759 74.1931 15.9163 74.7462 16.0893C76.4055 16.6005 78.3764 16.3803 79.8565 15.5073C80.9082 14.886 81.9599 13.6513 82.4507 12.4558C82.7155 11.8188 82.9804 10.6548 82.9804 10.0964C82.9804 9.73466 83.0038 9.68747 83.44 9.25491C83.6971 9.00324 83.9386 8.72798 83.9853 8.64933C84.0632 8.4999 84.0554 8.4999 83.6581 8.6336C82.996 8.86954 82.9025 8.83808 83.2297 8.48417C83.4712 8.2325 83.7594 7.77635 83.7594 7.64265C83.7594 7.61906 83.6426 7.65838 83.5101 7.72916C83.3699 7.80781 83.0583 7.92578 82.8246 7.99656L82.4039 8.13026L82.0222 7.87073C81.8119 7.72916 81.5158 7.57187 81.36 7.52468C80.9627 7.41458 80.3551 7.4303 79.9968 7.55614C79.023 7.91005 78.4076 8.82235 78.4777 9.82117Z" fill="white"/>
<path opacity="0.1" fill-rule="evenodd" clip-rule="evenodd" d="M101.085 11.9059C101.085 5.75505 106.072 0.768799 112.223 0.768799C118.373 0.768799 123.36 5.75505 123.36 11.9059C123.36 18.0568 118.373 23.043 112.223 23.043C106.072 23.043 101.085 18.0568 101.085 11.9059Z" fill="white"/>
<path fill-rule="evenodd" clip-rule="evenodd" d="M116.864 8.07718C117.375 8.21744 117.778 8.63073 117.914 9.15557C118.163 10.1068 118.163 12.0915 118.163 12.0915C118.163 12.0915 118.163 14.0761 117.914 15.0274C117.778 15.5523 117.375 15.9655 116.864 16.1059C115.938 16.3607 112.223 16.3607 112.223 16.3607C112.223 16.3607 108.508 16.3607 107.581 16.1059C107.07 15.9655 106.668 15.5523 106.531 15.0274C106.283 14.0761 106.283 12.0915 106.283 12.0915C106.283 12.0915 106.283 10.1068 106.531 9.15557C106.668 8.63073 107.07 8.21744 107.581 8.07718C108.508 7.82227 112.223 7.82227 112.223 7.82227C112.223 7.82227 115.938 7.82227 116.864 8.07718ZM111.109 10.4209V14.1333L114.079 12.2771L111.109 10.4209Z" fill="white"/>
</g>
<defs>
<clipPath id="clip0_4303_715">
<rect width="122.508" height="22.2742" fill="white" transform="translate(0.85144 0.768799)"/>
</clipPath>
</defs>
</svg>
