<svg width="39" height="35" viewBox="0 0 39 35" fill="none" xmlns="http://www.w3.org/2000/svg">
<g clip-path="url(#clip0_2303_1120)">
<path d="M38.5804 14.4805C38.5844 14.4515 38.5844 14.4222 38.5804 14.3931C38.5842 14.3695 38.5842 14.3454 38.5804 14.3217L38.2968 12.2803C38.2559 12.0361 38.1465 11.8079 37.9808 11.6211L37.9322 11.5655L37.8431 11.4781L32.9333 7.33191L33.071 7.46695C32.9584 7.33478 32.8169 7.22906 32.6571 7.15758C32.4973 7.0861 32.3231 7.05067 32.1474 7.05392H30.6567C30.4143 7.04921 30.1774 7.12477 29.9842 7.26838C29.7813 7.12563 29.5371 7.05046 29.2874 7.05392H27.7966C27.6011 7.05081 27.4083 7.09838 27.2375 7.19183C27.0668 7.28528 26.9243 7.42129 26.8245 7.58609C26.6705 7.82147 26.6126 8.10506 26.6624 8.38038L26.8488 9.66712C26.7253 9.59852 26.5856 9.56292 26.4436 9.56388H19.2248C18.9658 9.56547 18.7127 9.63989 18.4956 9.77833C18.2856 9.90718 18.1171 10.0917 18.0095 10.3105L17.4504 9.84187C17.2304 9.64229 16.94 9.53411 16.6403 9.54005H5.31372C5.0538 9.54469 4.79965 9.61587 4.57646 9.74656C4.27112 9.92177 4.04734 10.2067 3.9526 10.5408L0.355327 22.3361C0.288114 22.5304 0.281502 22.74 0.336338 22.9381C0.391175 23.1361 0.504977 23.3137 0.663205 23.4481C0.704435 23.4823 0.747726 23.5142 0.79284 23.5434C0.79284 23.5434 0.719911 23.4957 0.6794 23.456L5.58921 27.6101C5.7969 27.7976 6.06845 27.9024 6.35074 27.904H17.7664C18.0271 27.8974 18.2815 27.8234 18.5037 27.6895C18.6294 27.6222 18.7419 27.5334 18.8359 27.4274L18.8764 27.3718L18.9412 27.2924L18.9898 27.205L19.5246 27.6578C19.7293 27.8378 19.9949 27.9368 20.2699 27.9358H31.7099C31.9703 27.9273 32.2242 27.8535 32.4472 27.7213C32.5701 27.6499 32.6819 27.5616 32.7794 27.4592L32.8199 27.4036L32.8847 27.3242C32.9191 27.2739 32.949 27.2208 32.9738 27.1653C33.0003 27.1172 33.022 27.0666 33.0386 27.0144L36.3199 16.2439V16.1485C36.3239 16.1116 36.3239 16.0743 36.3199 16.0373V15.9659C36.3238 15.9422 36.3238 15.9181 36.3199 15.8944C36.3236 15.8441 36.3236 15.7937 36.3199 15.7434H37.3732C37.4648 15.7517 37.557 15.7517 37.6486 15.7434H37.7216C37.7809 15.7261 37.838 15.7021 37.8917 15.672H37.9728L38.1186 15.5608L38.1834 15.5131L38.2968 15.3701V15.3225L38.3778 15.1874C38.3733 15.1612 38.3733 15.1343 38.3778 15.108C38.3735 15.0951 38.3735 15.0812 38.3778 15.0683C38.3951 15.0217 38.4086 14.9739 38.4183 14.9253C38.4146 14.9097 38.4146 14.8933 38.4183 14.8777C38.4144 14.854 38.4144 14.8298 38.4183 14.8062C38.4183 14.8062 38.5804 14.4964 38.5804 14.4805Z" fill="black"/>
<path d="M16.9725 10.4456C17.0155 10.4837 17.0455 10.5338 17.0585 10.5892C17.0716 10.6446 17.067 10.7026 17.0454 10.7553L13.4562 22.5426C13.4111 22.6713 13.3186 22.7789 13.197 22.8444C13.098 22.9093 12.9835 22.9477 12.8648 22.9556H1.45723C1.35981 22.951 1.26751 22.9115 1.19796 22.8444C1.15659 22.8069 1.12755 22.7582 1.11456 22.7044C1.10157 22.6507 1.10523 22.5943 1.12505 22.5426L4.72232 10.7553C4.76377 10.625 4.85333 10.5146 4.97348 10.4456C5.07406 10.3853 5.18805 10.3499 5.30566 10.3423H16.7132C16.8099 10.3432 16.9025 10.3801 16.9725 10.4456ZM11.0175 20.1677L13.1645 13.1303H7.15292L5.01398 20.1677H11.0175ZM27.8615 10.5647C27.9004 10.609 27.9491 10.6442 28.0038 10.6676C28.0585 10.691 28.1178 10.702 28.1775 10.6997H29.6601C29.7166 10.7003 29.7722 10.6867 29.8219 10.6603C29.8715 10.6339 29.9134 10.5955 29.9437 10.5488C29.97 10.5123 29.9886 10.471 29.9984 10.4274C30.0081 10.3837 30.0088 10.3386 30.0004 10.2947L29.7087 8.19773C29.681 8.10068 29.6311 8.01106 29.5629 7.93561C29.524 7.89127 29.4754 7.8561 29.4207 7.83272C29.3659 7.80935 29.3065 7.79836 29.2469 7.80058H27.7643C27.7078 7.80004 27.6522 7.81362 27.6025 7.84002C27.5529 7.86643 27.511 7.90479 27.4807 7.9515C27.424 8.0627 27.3997 8.13418 27.424 8.19773L27.7238 10.2947C27.7391 10.3968 27.7874 10.4914 27.8615 10.5647ZM32.5688 8.18184C32.5409 8.08479 32.4911 7.99517 32.4229 7.91972C32.3856 7.87554 32.3384 7.84039 32.285 7.81697C32.2316 7.79355 32.1735 7.78251 32.115 7.7847H30.6243C30.5687 7.78314 30.5138 7.79635 30.4653 7.82292C30.4168 7.84949 30.3766 7.88843 30.3488 7.93561C30.2949 8.00608 30.2716 8.09459 30.284 8.18184L30.5837 10.2788C30.6026 10.3798 30.6503 10.4735 30.7215 10.5488C30.7611 10.5923 30.8099 10.6269 30.8644 10.6502C30.919 10.6735 30.978 10.685 31.0375 10.6838H32.5282C32.5836 10.6846 32.6382 10.671 32.6865 10.6445C32.7349 10.618 32.7753 10.5796 32.8037 10.5329C32.8319 10.4974 32.8516 10.4561 32.8614 10.4121C32.8713 10.3682 32.8709 10.3226 32.8604 10.2788L32.5688 8.18184ZM26.5571 11.359L26.4112 10.3264H19.2248C19.112 10.3325 19.0028 10.3682 18.9088 10.4297C18.8492 10.4616 18.7972 10.5058 18.7566 10.5593C18.7161 10.6128 18.6879 10.6742 18.6739 10.7395L18.0743 12.7093C18.0504 12.7585 18.0422 12.8137 18.0509 12.8676C18.0596 12.9215 18.0847 12.9715 18.1229 13.0111C18.1913 13.0741 18.2804 13.1108 18.3741 13.1144H27.108L24.961 20.1518H16.2514C16.1391 20.1543 16.0297 20.1873 15.9354 20.2471C15.8209 20.3184 15.7372 20.4288 15.7005 20.5569L15.0928 22.5267C15.073 22.5773 15.0678 22.6322 15.0778 22.6854C15.0878 22.7387 15.1126 22.7882 15.1495 22.8285C15.2157 22.8957 15.3056 22.9355 15.4007 22.9397H26.8406C26.959 22.9298 27.073 22.8916 27.1728 22.8285C27.2924 22.7626 27.3822 22.6548 27.424 22.5267L30.7134 11.7561H27.0108C26.952 11.7573 26.8937 11.7466 26.8394 11.7247C26.785 11.7029 26.7358 11.6703 26.6948 11.6291C26.6278 11.557 26.5805 11.4696 26.5571 11.3749V11.359Z" fill="white"/>
</g>
<defs>
<clipPath id="clip0_2303_1120">
<rect width="38.2838" height="20.8821" fill="white" transform="translate(0.299561 7.05371)"/>
</clipPath>
</defs>
</svg>
