<svg width="39" height="35" viewBox="0 0 39 35" fill="none" xmlns="http://www.w3.org/2000/svg">
<g clip-path="url(#clip0_2303_1148)">
<path d="M38.8875 14.4805C38.8915 14.4515 38.8915 14.4222 38.8875 14.3931C38.8913 14.3695 38.8913 14.3454 38.8875 14.3217L38.6039 12.2803C38.563 12.0361 38.4536 11.8079 38.288 11.6211L38.2393 11.5655L38.1503 11.4781L33.2405 7.33191L33.3782 7.46695C33.2655 7.33478 33.1241 7.22906 32.9642 7.15758C32.8044 7.0861 32.6302 7.05067 32.4546 7.05392H30.9638C30.7214 7.04921 30.4845 7.12477 30.2913 7.26838C30.0885 7.12563 29.8443 7.05046 29.5946 7.05392H28.1038C27.9083 7.05081 27.7154 7.09838 27.5447 7.19183C27.3739 7.28528 27.2314 7.42129 27.1316 7.58609C26.9776 7.82147 26.9197 8.10506 26.9695 8.38038L27.1559 9.66712C27.0324 9.59852 26.8927 9.56292 26.7508 9.56388H19.5319C19.2729 9.56547 19.0199 9.63989 18.8027 9.77833C18.5927 9.90718 18.4242 10.0917 18.3166 10.3105L17.7576 9.84187C17.5375 9.64229 17.2471 9.53411 16.9474 9.54005H5.62085C5.36093 9.54469 5.10678 9.61587 4.88359 9.74656C4.57825 9.92177 4.35447 10.2067 4.25973 10.5408L0.662456 22.3361C0.595242 22.5304 0.58863 22.74 0.643467 22.9381C0.698304 23.1361 0.812106 23.3137 0.970334 23.4481C1.01156 23.4823 1.05485 23.5142 1.09997 23.5434C1.09997 23.5434 1.02704 23.4957 0.986529 23.456L5.89634 27.6101C6.10403 27.7976 6.37558 27.9024 6.65787 27.904H18.0736C18.3343 27.8974 18.5886 27.8234 18.8109 27.6895C18.9366 27.6222 19.049 27.5334 19.143 27.4274L19.1835 27.3718L19.2484 27.2924L19.297 27.205L19.8317 27.6578C20.0364 27.8378 20.3021 27.9368 20.5771 27.9358H32.017C32.2775 27.9273 32.5313 27.8535 32.7543 27.7213C32.8772 27.6499 32.989 27.5616 33.0865 27.4592L33.127 27.4036L33.1918 27.3242C33.2263 27.2739 33.2561 27.2208 33.2809 27.1653C33.3074 27.1172 33.3291 27.0666 33.3457 27.0144L36.627 16.2439V16.1485C36.6311 16.1116 36.6311 16.0743 36.627 16.0373V15.9659C36.631 15.9422 36.631 15.9181 36.627 15.8944C36.6307 15.8441 36.6307 15.7937 36.627 15.7434H37.6803C37.7719 15.7517 37.8641 15.7517 37.9557 15.7434H38.0287C38.088 15.7261 38.1451 15.7021 38.1989 15.672H38.2799L38.4257 15.5608L38.4905 15.5131L38.6039 15.3701V15.3225L38.685 15.1874C38.6804 15.1612 38.6804 15.1343 38.685 15.108C38.6806 15.0951 38.6806 15.0812 38.685 15.0683C38.7022 15.0217 38.7157 14.9739 38.7255 14.9253C38.7217 14.9097 38.7217 14.8933 38.7255 14.8777C38.7215 14.854 38.7215 14.8298 38.7255 14.8062C38.7255 14.8062 38.8875 14.4964 38.8875 14.4805Z" fill="black"/>
<path d="M17.2796 10.4456C17.3226 10.4837 17.3526 10.5338 17.3657 10.5892C17.3788 10.6446 17.3741 10.7026 17.3525 10.7553L13.7634 22.5426C13.7182 22.6713 13.6257 22.7789 13.5041 22.8444C13.4052 22.9093 13.2906 22.9477 13.1719 22.9556H1.76436C1.66694 22.951 1.57464 22.9115 1.50509 22.8444C1.46372 22.8069 1.43468 22.7582 1.42169 22.7044C1.4087 22.6507 1.41236 22.5943 1.43218 22.5426L5.02945 10.7553C5.0709 10.625 5.16045 10.5146 5.28061 10.4456C5.38119 10.3853 5.49518 10.3499 5.61279 10.3423H17.0203C17.117 10.3432 17.2097 10.3801 17.2796 10.4456ZM11.3246 20.1677L13.4717 13.1303H7.46005L5.32111 20.1677H11.3246ZM28.1686 10.5647C28.2075 10.609 28.2562 10.6442 28.3109 10.6676C28.3656 10.691 28.425 10.702 28.4846 10.6997H29.9673C30.0237 10.7003 30.0794 10.6867 30.129 10.6603C30.1786 10.6339 30.2205 10.5955 30.2508 10.5488C30.2772 10.5123 30.2958 10.471 30.3055 10.4274C30.3152 10.3837 30.3159 10.3386 30.3075 10.2947L30.0159 8.19773C29.9881 8.10068 29.9382 8.01106 29.8701 7.93561C29.8311 7.89127 29.7825 7.8561 29.7278 7.83272C29.6731 7.80935 29.6137 7.79836 29.5541 7.80058H28.0714C28.015 7.80004 27.9593 7.81362 27.9097 7.84002C27.8601 7.86643 27.8181 7.90479 27.7879 7.9515C27.7311 8.0627 27.7068 8.13418 27.7311 8.19773L28.0309 10.2947C28.0463 10.3968 28.0946 10.4914 28.1686 10.5647ZM32.8759 8.18184C32.8481 8.08479 32.7982 7.99517 32.73 7.91972C32.6928 7.87554 32.6455 7.84039 32.5922 7.81697C32.5388 7.79355 32.4806 7.78251 32.4222 7.7847H30.9314C30.8759 7.78314 30.8209 7.79635 30.7725 7.82292C30.724 7.84949 30.6837 7.88843 30.656 7.93561C30.602 8.00608 30.5787 8.09459 30.5911 8.18184L30.8909 10.2788C30.9097 10.3798 30.9574 10.4735 31.0286 10.5488C31.0682 10.5923 31.117 10.6269 31.1716 10.6502C31.2261 10.6735 31.2851 10.685 31.3446 10.6838H32.8354C32.8908 10.6846 32.9453 10.671 32.9937 10.6445C33.042 10.618 33.0825 10.5796 33.1109 10.5329C33.139 10.4974 33.1587 10.4561 33.1685 10.4121C33.1784 10.3682 33.178 10.3226 33.1675 10.2788L32.8759 8.18184ZM26.8642 11.359L26.7184 10.3264H19.5319C19.4191 10.3325 19.31 10.3682 19.216 10.4297C19.1563 10.4616 19.1043 10.5058 19.0638 10.5593C19.0233 10.6128 18.995 10.6742 18.981 10.7395L18.3815 12.7093C18.3575 12.7585 18.3494 12.8137 18.358 12.8676C18.3667 12.9215 18.3918 12.9715 18.4301 13.0111C18.4984 13.0741 18.5876 13.1108 18.6813 13.1144H27.4152L25.2681 20.1518H16.5585C16.4462 20.1543 16.3368 20.1873 16.2426 20.2471C16.128 20.3184 16.0443 20.4288 16.0076 20.5569L15.4 22.5267C15.3801 22.5773 15.3749 22.6322 15.3849 22.6854C15.395 22.7387 15.4197 22.7882 15.4566 22.8285C15.5228 22.8957 15.6127 22.9355 15.7078 22.9397H27.1478C27.2661 22.9298 27.3801 22.8916 27.4799 22.8285C27.5996 22.7626 27.6893 22.6548 27.7311 22.5267L31.0205 11.7561H27.3179C27.2592 11.7573 27.2008 11.7466 27.1465 11.7247C27.0922 11.7029 27.043 11.6703 27.002 11.6291C26.935 11.557 26.8876 11.4696 26.8642 11.3749V11.359Z" fill="white"/>
</g>
<defs>
<clipPath id="clip0_2303_1148">
<rect width="38.2838" height="20.8821" fill="white" transform="translate(0.606689 7.05371)"/>
</clipPath>
</defs>
</svg>
