<svg width="34" height="35" viewBox="0 0 34 35" fill="none" xmlns="http://www.w3.org/2000/svg">
<g clip-path="url(#clip0_2303_1117)">
<path fill-rule="evenodd" clip-rule="evenodd" d="M10.0458 10.6138L3.09497 17.4947C4.48526 18.8711 6.07345 20.031 7.80502 20.9385C8.28364 22.1953 9.03386 23.3739 10.0557 24.3855C13.9 28.1911 20.1328 28.1911 23.9771 24.3855C24.9989 23.3739 25.7491 22.1953 26.2277 20.9384C27.9593 20.031 29.5475 18.8711 30.9377 17.4947L23.9926 10.6194C23.9874 10.6143 23.9823 10.6091 23.9771 10.604C20.1328 6.79835 13.9 6.79835 10.0557 10.604C10.0524 10.6073 10.0491 10.6105 10.0458 10.6138ZM23.312 22.1799C21.2864 22.8566 19.16 23.2032 17.0164 23.2032C14.8727 23.2032 12.7464 22.8566 10.7208 22.1799C10.9403 22.4681 11.1826 22.7448 11.4478 23.0073C14.5232 26.0519 19.5095 26.0519 22.5849 23.0073C22.8501 22.7448 23.0925 22.4681 23.312 22.1799ZM11.5906 11.8443C12.1128 12.1859 12.6682 12.4782 13.2492 12.7165C14.4435 13.2062 15.7236 13.4582 17.0164 13.4582C18.3091 13.4582 19.5892 13.2062 20.7835 12.7165C21.3646 12.4782 21.9199 12.1859 22.4422 11.8443C19.4051 8.98356 14.6276 8.98357 11.5906 11.8443Z" fill="#3B4158"/>
</g>
<defs>
<clipPath id="clip0_2303_1117">
<rect width="27.8428" height="19.4899" fill="white" transform="translate(3.09497 7.74976)"/>
</clipPath>
</defs>
</svg>
