<svg width="14" height="13" viewBox="0 0 14 13" fill="none" xmlns="http://www.w3.org/2000/svg">
<g clip-path="url(#clip0_4303_749)">
<path fill-rule="evenodd" clip-rule="evenodd" d="M12.4609 0.898526C12.6027 1.04033 12.6508 1.25084 12.5845 1.44013L8.93014 11.8812C8.85943 12.0832 8.67255 12.2216 8.45867 12.2303C8.2448 12.2391 8.04727 12.1163 7.96034 11.9207L5.95368 7.40575L1.43869 5.39909C1.24309 5.31216 1.12037 5.11463 1.1291 4.90076C1.13782 4.68688 1.27622 4.50001 1.47826 4.42929L11.9193 0.774929C12.1086 0.708678 12.3191 0.756716 12.4609 0.898526ZM6.97186 7.12586L8.37965 10.2934L10.8433 3.25444L6.97186 7.12586ZM10.105 2.51614L3.06604 4.97978L6.23357 6.38757L10.105 2.51614Z" fill="white"/>
</g>
<defs>
<clipPath id="clip0_4303_749">
<rect width="12.5293" height="12.5293" fill="white" transform="translate(0.606445 0.223633)"/>
</clipPath>
</defs>
</svg>
