<svg width="160" height="48" viewBox="0 0 120 32" fill="none" xmlns="http://www.w3.org/2000/svg">
<g clip-path="url(#clip0_7763_6011)">
<path d="M54.8014 16.9314C54.8289 16.9003 54.8541 16.8679 54.878 16.8344C54.8804 16.8308 54.8828 16.826 54.8864 16.8224C54.9079 16.7901 54.9295 16.7578 54.9474 16.7255C54.951 16.7183 54.9546 16.7111 54.9594 16.7039C54.9762 16.674 54.9917 16.6429 55.0049 16.6129C55.0097 16.6022 55.0145 16.5902 55.0193 16.5794C55.0312 16.5519 55.042 16.5244 55.0516 16.4956C55.0564 16.4813 55.0612 16.4669 55.0648 16.4513C55.0719 16.4262 55.0791 16.3998 55.0863 16.3747C55.0899 16.3579 55.0935 16.3412 55.0971 16.3232C55.1019 16.2993 55.1067 16.2753 55.1091 16.2502C55.1115 16.2322 55.1126 16.2131 55.115 16.1951C55.1174 16.1712 55.1198 16.1484 55.1198 16.1245C55.1198 16.1054 55.1198 16.0862 55.1198 16.067C55.1198 16.0443 55.1198 16.0216 55.1186 15.9976C55.1186 15.9785 55.115 15.9581 55.1138 15.9389C55.1115 15.9174 55.1091 15.8947 55.1055 15.8731C55.1019 15.8528 55.0983 15.8324 55.0947 15.8109C55.0911 15.7905 55.0863 15.7702 55.0815 15.7498C55.0755 15.7271 55.0696 15.7055 55.0624 15.684C55.0564 15.666 55.0516 15.648 55.0456 15.6301C55.0372 15.6049 55.0265 15.581 55.0169 15.5571C55.0109 15.5427 55.0049 15.5283 54.9977 15.514C54.9846 15.4864 54.9702 15.4601 54.9558 15.4326C54.9498 15.4218 54.9451 15.4122 54.9391 15.4014C54.9211 15.3715 54.902 15.3428 54.8816 15.314C54.8768 15.3069 54.872 15.3009 54.8672 15.2937C54.8445 15.2626 54.8205 15.2338 54.7954 15.2051C54.7918 15.2015 54.7894 15.1979 54.787 15.1943L54.7763 15.1824C54.7763 15.1824 54.7655 15.1704 54.7607 15.1644L45.5319 4.67267C45.0471 4.12798 44.2115 4.08009 43.6668 4.56493C43.1221 5.04977 43.0742 5.88538 43.5591 6.43007L45.7546 9.02547L52.0372 16.0802C52.0372 16.0802 52.0396 16.0862 52.0372 16.0886L43.5076 25.4047C43.0311 25.953 43.0359 26.8006 43.5722 27.2914C44.1229 27.7954 44.9753 27.7439 45.4613 27.1837L54.7703 16.9709C54.7775 16.9625 54.7846 16.9541 54.7918 16.9457L54.7978 16.9398C54.7978 16.9398 54.8014 16.9362 54.8026 16.9338L54.8014 16.9314Z" fill="#F18D13"/>
<path d="M64.1703 7.54102C63.6352 7.0454 62.7995 7.07653 62.3039 7.61165L58.6419 11.561L49.2958 1.06809C48.811 0.52339 47.9754 0.475505 47.4307 0.960346C46.886 1.44519 46.8381 2.28079 47.3229 2.82549L57.6375 14.4066C58.1223 14.9513 58.9579 14.9992 59.5026 14.5144C59.5421 14.4784 59.5792 14.4413 59.6128 14.4018L64.2421 9.40856C64.7377 8.87343 64.7066 8.03783 64.1715 7.54222L64.1703 7.54102Z" fill="white"/>
<path d="M58.7987 6.44564C59.8367 6.44564 60.6782 5.60415 60.6782 4.56613C60.6782 3.5281 59.8367 2.68662 58.7987 2.68662C57.7607 2.68662 56.9192 3.5281 56.9192 4.56613C56.9192 5.60415 57.7607 6.44564 58.7987 6.44564Z" fill="white"/>
<path d="M0.478882 21.3093V10.5063H3.37835V21.3093H0.478882Z" fill="white"/>
<path d="M6.07185 10.5063H8.84921L8.93062 13.5291L8.05192 13.6716C8.29733 13.1137 8.66486 12.5762 9.15448 12.0578C9.64411 11.5407 10.2439 11.1157 10.9514 10.7817C11.6589 10.4489 12.4694 10.2813 13.3816 10.2813C14.4841 10.2813 15.4095 10.4896 16.1589 10.9038C16.9072 11.3192 17.4758 11.8806 17.8637 12.5882C18.2515 13.2957 18.4455 14.0786 18.4455 14.9369V21.3081H15.546V15.5487C15.546 15.004 15.4095 14.5239 15.1378 14.1085C14.8648 13.6931 14.4973 13.3699 14.0352 13.1388C13.5719 12.9078 13.0476 12.7917 12.4622 12.7917C11.9175 12.7917 11.4302 12.8838 11.0017 13.067C10.5731 13.2514 10.208 13.4932 9.90868 13.7925C9.6094 14.0918 9.37835 14.4126 9.21434 14.7526C9.05033 15.0926 8.96893 15.4194 8.96893 15.733V21.3081H6.06946V10.5051L6.07185 10.5063Z" fill="white"/>
<path d="M26.9859 21.5128C25.7193 21.5128 24.6239 21.2746 23.6985 20.7981C22.772 20.3217 22.0573 19.662 21.5545 18.8169C21.0505 17.9729 20.7991 16.9996 20.7991 15.897C20.7991 14.7945 21.0672 13.8416 21.6059 12.9976C22.1435 12.1536 22.8929 11.4904 23.8518 11.0067C24.8119 10.5243 25.918 10.2813 27.1702 10.2813C27.9328 10.2813 28.6403 10.3663 29.294 10.5363C29.9476 10.7063 30.5162 10.9313 30.9987 11.2102C31.4811 11.4892 31.8666 11.7921 32.1527 12.1189C32.4389 12.4457 32.5945 12.7725 32.622 13.0993L31.887 13.2418V6.19663H34.8068V21.3093H32.0498L31.9277 18.4098L32.4999 18.6349C32.4724 18.9617 32.3096 19.2957 32.0103 19.6357C31.711 19.9757 31.3052 20.2893 30.7952 20.5755C30.2852 20.8616 29.7058 21.0902 29.0593 21.2602C28.4129 21.4302 27.7221 21.5152 26.9859 21.5152V21.5128ZM27.8227 18.9809C28.6667 18.9809 29.3981 18.848 30.0182 18.5822C30.6372 18.3165 31.1208 17.9525 31.468 17.4892C31.8151 17.0259 31.9887 16.4956 31.9887 15.8958C31.9887 15.2961 31.8151 14.7897 31.468 14.3336C31.1208 13.8775 30.6372 13.5171 30.0182 13.2514C29.3981 12.9856 28.6667 12.8527 27.8227 12.8527C26.9787 12.8527 26.288 12.9856 25.6678 13.2514C25.0477 13.5171 24.5653 13.8775 24.2181 14.3336C23.8709 14.7897 23.6973 15.3104 23.6973 15.8958C23.6973 16.4812 23.8709 17.0259 24.2181 17.4892C24.5653 17.9525 25.0477 18.3165 25.6678 18.5822C26.2868 18.848 27.005 18.9809 27.8227 18.9809Z" fill="white"/>
<path d="M39.0746 8.27487C38.5168 8.27487 38.081 8.136 37.7674 7.85587C37.4537 7.57693 37.2981 7.18547 37.2981 6.68147C37.2981 6.21938 37.4585 5.84108 37.7781 5.54778C38.0978 5.25568 38.53 5.10843 39.0746 5.10843C39.6193 5.10843 40.0683 5.2485 40.3819 5.52743C40.6944 5.80636 40.8512 6.19065 40.8512 6.68147C40.8512 7.14477 40.6908 7.52546 40.3712 7.82474C40.0515 8.12403 39.6182 8.27367 39.0746 8.27367V8.27487ZM37.6453 21.4877V10.6847H40.5447V21.4877H37.6453Z" fill="white"/>
<path d="M67.5773 25.7603V10.4441H70.375L70.4564 12.8946L69.9261 12.7115C70.035 12.3164 70.3379 11.9357 70.8347 11.5682C71.3315 11.2007 71.9612 10.8918 72.7238 10.6392C73.4863 10.3878 74.3172 10.2609 75.215 10.2609C76.4816 10.2609 77.5877 10.4991 78.5335 10.9756C79.4792 11.4521 80.2143 12.1093 80.7386 12.9461C81.263 13.7829 81.5251 14.7538 81.5251 15.8563C81.5251 16.9589 81.2594 17.9118 80.729 18.7558C80.1975 19.5998 79.4589 20.2606 78.5131 20.7371C77.5662 21.2135 76.4672 21.4518 75.215 21.4518C74.2621 21.4518 73.4002 21.3189 72.6316 21.0543C71.8618 20.7886 71.2333 20.4558 70.7425 20.0535C70.2529 19.6525 69.9464 19.261 69.8231 18.8791L70.4971 18.593V25.7615H67.5773V25.7603ZM74.5614 18.9593C75.391 18.9593 76.1165 18.8264 76.7366 18.5607C77.3555 18.2949 77.8391 17.9274 78.1863 17.4581C78.5335 16.9888 78.7071 16.4537 78.7071 15.8551C78.7071 15.2566 78.5299 14.7215 78.1767 14.2522C77.8224 13.7829 77.3399 13.4178 76.727 13.1592C76.1141 12.9006 75.3922 12.7713 74.5626 12.7713C73.733 12.7713 73.0207 12.9042 72.3874 13.17C71.7541 13.4357 71.2645 13.7997 70.9173 14.263C70.5701 14.7262 70.3965 15.2566 70.3965 15.8563C70.3965 16.4561 70.5701 16.99 70.9173 17.4593C71.2645 17.9286 71.7541 18.2961 72.3874 18.5619C73.0207 18.8276 73.7449 18.9605 74.5626 18.9605L74.5614 18.9593Z" fill="white"/>
<path d="M90.9969 21.4721C89.5125 21.4721 88.2052 21.2339 87.0763 20.7574C85.9462 20.281 85.0711 19.6237 84.4522 18.7869C83.8321 17.9501 83.5232 16.9996 83.5232 15.9377C83.5232 15.0387 83.7099 14.2402 84.0847 13.5387C84.4594 12.8372 84.9801 12.2422 85.6469 11.7514C86.3137 11.2617 87.0763 10.8834 87.9346 10.6177C88.793 10.3519 89.698 10.219 90.651 10.219C91.6039 10.219 92.4682 10.3519 93.2859 10.6177C94.1023 10.8834 94.8182 11.2545 95.4299 11.731C96.0429 12.2075 96.5193 12.7761 96.8593 13.4357C97.1993 14.0966 97.3561 14.8208 97.3286 15.6109L97.3082 16.6524H85.7702L85.3009 14.7322H94.92L94.5931 15.0998V14.6508C94.5381 14.2558 94.3238 13.9086 93.9503 13.6093C93.5756 13.31 93.1027 13.0718 92.5305 12.8946C91.9582 12.7174 91.3465 12.6289 90.6929 12.6289C89.8896 12.6289 89.1509 12.7306 88.477 12.9353C87.803 13.1388 87.2655 13.4657 86.8632 13.9158C86.461 14.3647 86.261 14.9645 86.261 15.7127C86.261 16.3532 86.4789 16.9182 86.9147 17.4078C87.3504 17.8975 87.9634 18.2865 88.7523 18.5715C89.5412 18.8576 90.4606 19 91.5093 19C92.558 19 93.4152 18.8779 94.082 18.6325C94.7488 18.3871 95.2599 18.1704 95.6131 17.9789L96.8593 19.8979C96.3829 20.1972 95.831 20.4701 95.2049 20.7143C94.5788 20.9597 93.9084 21.1465 93.1937 21.2758C92.479 21.4051 91.7463 21.4697 90.9981 21.4697L90.9969 21.4721Z" fill="white"/>
<path d="M99.8462 21.2674V10.4644H102.644L102.746 14.4665L101.847 14.4461C102.064 13.6704 102.432 12.9629 102.949 12.3224C103.466 11.6831 104.072 11.1755 104.766 10.8008C105.461 10.4261 106.183 10.2394 106.931 10.2394C107.435 10.2394 107.93 10.2825 108.412 10.4022C108.852 10.5123 108.8 10.5183 108.8 10.6476L108.809 13.9158C108.523 13.7254 108.139 13.5722 107.655 13.4561C107.171 13.34 106.712 13.2825 106.277 13.2825C105.705 13.2825 105.201 13.3711 104.766 13.5483C104.331 13.7254 103.963 13.9601 103.664 14.2522C103.365 14.5455 103.139 14.8687 102.99 15.2219C102.84 15.5762 102.765 15.9294 102.765 16.2837V21.2662H99.845L99.8462 21.2674Z" fill="white"/>
<path d="M111.247 13.0574V10.4644H120V13.0574H111.247ZM113.659 21.2674V7.11484H116.558V21.2674H113.659Z" fill="white"/>
<path d="M64.1703 24.4578C63.6352 24.9534 62.7995 24.9223 62.3039 24.3872L58.6419 20.4378L49.2958 30.9319C48.811 31.4766 47.9754 31.5245 47.4307 31.0397C46.886 30.5548 46.8381 29.7192 47.3229 29.1745L57.6375 17.5934C58.1223 17.0487 58.9579 17.0008 59.5026 17.4857C59.5421 17.5216 59.5792 17.5587 59.6128 17.5982L64.2421 22.5914C64.7377 23.1266 64.7066 23.9622 64.1715 24.4578H64.1703Z" fill="white"/>
<path d="M58.7987 29.3134C59.8367 29.3134 60.6782 28.4719 60.6782 27.4339C60.6782 26.3959 59.8367 25.5544 58.7987 25.5544C57.7607 25.5544 56.9192 26.3959 56.9192 27.4339C56.9192 28.4719 57.7607 29.3134 58.7987 29.3134Z" fill="white"/>
<path d="M1.87951 8.35028C2.91753 8.35028 3.75902 7.5088 3.75902 6.47078C3.75902 5.43275 2.91753 4.59127 1.87951 4.59127C0.841484 4.59127 0 5.43275 0 6.47078C0 7.5088 0.841484 8.35028 1.87951 8.35028Z" fill="#F18D13"/>
</g>
<defs>
<clipPath id="clip0_7763_6011">
<rect width="120" height="30.7497" fill="white" transform="translate(0 0.625147)"/>
</clipPath>
</defs>
</svg>
